<?xml version="1.0" encoding="UTF-8"?>
<svg width="124px" height="205px" viewBox="0 0 124 205" version="1.1" xmlns="http://www.w3.org/2000/svg" xmlns:xlink="http://www.w3.org/1999/xlink">
    <!-- Generator: Sketch 63.1 (92452) - https://sketch.com -->
    <title>02</title>
    <desc>Created with Sketch.</desc>
    <g id="Page-1" stroke="none" stroke-width="1" fill="none" fill-rule="evenodd" stroke-linecap="round" stroke-linejoin="round">
        <g id="03_Iconos" transform="translate(-424.000000, -69.000000)" stroke="#3B3C42">
            <g id="02" transform="translate(430.001500, 74.950000)">
                <line x1="0.0003" y1="162.8429" x2="112.0123" y2="162.8429" id="Stroke-53" stroke-width="6.782"></line>
                <line x1="0.0003" y1="20.3712" x2="112.0123" y2="20.3712" id="Stroke-54" stroke-width="6.782"></line>
                <path d="M112.012,173.026 C112.012,184.726 108.421,193.486 96.737,193.486 L15.275,193.486 C3.585,193.486 8.52651283e-14,184.726 8.52651283e-14,173.026 L8.52651283e-14,20.371 C8.52651283e-14,8.671 3.585,0.011 15.275,0.011 L96.737,-1.13686838e-13 C108.421,-1.13686838e-13 112.012,8.671 112.012,20.371 L112.012,173.026 Z" id="Stroke-55" stroke-width="10.173"></path>
                <line x1="42.073" y1="109.9" x2="68.775" y2="73.15" id="Stroke-56" stroke-width="8.477"></line>
                <line x1="44.9832" y1="76.9171" x2="51.6602" y2="67.7341" id="Stroke-57" stroke-width="8.477"></line>
                <line x1="59.1878" y1="115.3102" x2="65.8648" y2="106.1272" id="Stroke-58" stroke-width="8.477"></line>
                <line x1="34.5393" y1="62.3141" x2="34.5393" y2="62.3141" id="Stroke-59" stroke-width="8.477"></line>
                <line x1="76.3137" y1="121.0011" x2="76.3137" y2="121.0011" id="Stroke-60" stroke-width="8.477"></line>
            </g>
        </g>
    </g>
</svg>