<?xml version="1.0" encoding="UTF-8"?>
<svg width="154px" height="225px" viewBox="0 0 154 225" version="1.1" xmlns="http://www.w3.org/2000/svg" xmlns:xlink="http://www.w3.org/1999/xlink">
    <!-- Generator: Sketch 63.1 (92452) - https://sketch.com -->
    <title>06</title>
    <desc>Created with Sketch.</desc>
    <g id="Page-1" stroke="none" stroke-width="1" fill="none" fill-rule="evenodd">
        <g id="03_Iconos" transform="translate(-1698.000000, -59.000000)" fill="#3B3C42">
            <g id="06" transform="translate(1698.211500, 58.998107)">
                <path d="M76.3528,95.8558926 C74.4578,94.4778926 71.8078,94.8998926 70.4328,96.7928926 L43.7308,133.542893 C42.3538,135.435893 42.7738,138.085893 44.6678,139.461893 C45.4198,140.008893 46.2918,140.272893 47.1558,140.272893 C48.4668,140.272893 49.7588,139.666893 50.5878,138.524893 L77.2898,101.775893 C78.6668,99.8818926 78.2478,97.2318926 76.3528,95.8558926" id="Fill-171"></path>
                <path d="M47.5765,106.479893 C48.3295,107.026893 49.2015,107.290893 50.0655,107.290893 C51.3765,107.290893 52.6685,106.684893 53.4985,105.543893 L60.1765,96.3608926 C61.5525,94.4668926 61.1335,91.8158926 59.2405,90.4388926 C57.3465,89.0628926 54.6965,89.4818926 53.3185,91.3748926 L46.6405,100.557893 C45.2645,102.451893 45.6835,105.102893 47.5765,106.479893" id="Fill-172"></path>
                <path d="M73.4446,128.832393 C71.5496,127.456393 68.9006,127.874393 67.5226,129.768393 L60.8456,138.950393 C59.4696,140.844393 59.8886,143.495393 61.7816,144.872393 C62.5346,145.419393 63.4066,145.683393 64.2706,145.683393 C65.5816,145.683393 66.8736,145.077393 67.7036,143.936393 L74.3806,134.754393 C75.7566,132.860393 75.3376,130.209393 73.4446,128.832393" id="Fill-173"></path>
                <path d="M42.6272,85.4495926 C41.8372,84.6595926 40.7372,84.2095926 39.6272,84.2095926 C38.5072,84.2095926 37.4172,84.6595926 36.6272,85.4495926 C35.8372,86.2395926 35.3882,87.3295926 35.3882,88.4495926 C35.3882,89.5595926 35.8372,90.6495926 36.6272,91.4495926 C37.4172,92.2295926 38.5182,92.6895926 39.6272,92.6895926 C40.7372,92.6895926 41.8372,92.2295926 42.6272,91.4495926 C43.4172,90.6495926 43.8672,89.5595926 43.8672,88.4495926 C43.8672,87.3295926 43.4172,86.2395926 42.6272,85.4495926" id="Fill-174"></path>
                <path d="M78.3978,144.139993 C77.6178,144.929993 77.1578,146.019993 77.1578,147.128993 C77.1578,148.248993 77.6178,149.338993 78.4078,150.128993 C79.1878,150.918993 80.2778,151.368993 81.3978,151.368993 C82.5178,151.368993 83.6078,150.918993 84.3978,150.128993 C85.1878,149.338993 85.6378,148.248993 85.6378,147.128993 C85.6378,146.019993 85.1878,144.929993 84.3978,144.139993 C83.6078,143.349993 82.5178,142.889993 81.3978,142.889993 C80.2878,142.889993 79.1878,143.349993 78.3978,144.139993" id="Fill-175"></path>
                <path d="M112.012,185.586293 L10.174,185.586293 L10.174,49.8962926 L72.614,49.8962926 C74.29,57.1652926 77.969,64.0592926 83.665,69.6712926 C91.525,77.4162926 101.762,81.3012926 112.012,81.3522926 L112.012,185.586293 Z M112.012,199.160293 C112.012,212.671293 107.116,214.533293 101.824,214.533293 L20.362,214.533293 C15.071,214.533293 10.174,212.671293 10.174,199.160293 L10.174,192.367293 L112.012,192.367293 L112.012,199.160293 Z M20.362,31.2322926 L72.662,31.2322926 C71.737,35.1292926 71.395,39.1362926 71.63,43.1142926 L10.294,43.1142926 C11.072,32.7612926 15.553,31.2322926 20.362,31.2322926 L20.362,31.2322926 Z M126.661,29.5362926 L124.379,44.1492926 L99.172,44.1492926 L94.272,29.5362926 L126.661,29.5362926 Z M140.775,11.7132926 C130.953,2.03529256 117.037,-1.99470744 103.544,0.940292562 C101.714,1.33729256 100.554,3.14429256 100.951,4.97429256 C101.349,6.80229256 103.149,7.96329256 104.986,7.56629256 C116.226,5.12329256 127.83,8.47929256 136.015,16.5432926 C149.33,29.6642926 149.489,51.1722926 136.368,64.4872926 C123.247,77.8022926 101.741,77.9592926 88.425,64.8412926 C76.512,53.1022926 75.14,34.6542926 84.377,21.3612926 L86.233,26.8962926 C86.258,27.0072926 86.266,27.1202926 86.303,27.2302926 L93.52,48.6232926 C93.578,48.7962926 93.65,48.9622926 93.733,49.1202926 C93.779,49.2072926 93.836,49.2852926 93.889,49.3682926 C93.932,49.4342926 93.969,49.5052926 94.016,49.5682926 C94.081,49.6562926 94.158,49.7342926 94.232,49.8152926 C94.276,49.8642926 94.315,49.9172926 94.362,49.9632926 C94.432,50.0322926 94.51,50.0892926 94.586,50.1512926 C94.646,50.2002926 94.7,50.2542926 94.763,50.2992926 C94.833,50.3492926 94.91,50.3892926 94.985,50.4332926 C95.06,50.4792926 95.131,50.5282926 95.209,50.5682926 C95.287,50.6072926 95.37,50.6352926 95.451,50.6682926 C95.532,50.7012926 95.609,50.7392926 95.691,50.7662926 C95.821,50.8082926 95.955,50.8362926 96.089,50.8612926 C96.126,50.8692926 96.161,50.8812926 96.199,50.8872926 C96.373,50.9162926 96.552,50.9312926 96.733,50.9312926 L96.744,50.9302926 L127.282,50.9302926 C128.952,50.9302926 130.374,49.7132926 130.632,48.0632926 L133.974,26.6692926 C134.126,25.6902926 133.844,24.6932926 133.199,23.9402926 C132.555,23.1882926 131.615,22.7552926 130.623,22.7552926 L91.997,22.7552926 L89.069,14.0232926 C89.041,13.9402926 88.996,13.8692926 88.963,13.7902926 C88.828,13.1702926 88.522,12.5802926 88.036,12.1022926 C86.703,10.7872926 84.555,10.8022926 83.241,12.1372926 C80.561,14.8572926 78.354,17.8672926 76.596,21.0592926 L20.362,21.0582926 C2.646,21.0582926 -1.13686838e-13,37.0012926 -1.13686838e-13,46.5052926 L-1.13686838e-13,199.160293 C-1.13686838e-13,208.701293 2.646,224.707293 20.362,224.707293 L101.824,224.707293 C119.54,224.707293 122.186,208.701293 122.186,199.160293 L122.186,80.1222926 C129.174,78.3682926 135.783,74.7442926 141.199,69.2472926 C156.945,53.2682926 156.754,27.4582926 140.775,11.7132926 L140.775,11.7132926 Z" id="Fill-176"></path>
                <path d="M94.7327,59.5755926 C94.7327,62.3875926 97.0117,64.6675926 99.8237,64.6675926 C102.6357,64.6675926 104.9157,62.3875926 104.9157,59.5755926 C104.9157,56.7635926 102.6357,54.4845926 99.8237,54.4845926 C97.0117,54.4845926 94.7327,56.7635926 94.7327,59.5755926" id="Fill-177"></path>
                <path d="M122.5403,54.4842926 C119.7283,54.4842926 117.4483,56.7632926 117.4483,59.5752926 C117.4483,62.3872926 119.7283,64.6672926 122.5403,64.6672926 C125.3533,64.6672926 127.6323,62.3872926 127.6323,59.5752926 C127.6323,56.7632926 125.3533,54.4842926 122.5403,54.4842926" id="Fill-178"></path>
            </g>
        </g>
    </g>
</svg>