<?xml version="1.0" encoding="UTF-8"?>
<svg width="153px" height="226px" viewBox="0 0 153 226" version="1.1" xmlns="http://www.w3.org/2000/svg" xmlns:xlink="http://www.w3.org/1999/xlink">
    <!-- Generator: Sketch 63.1 (92452) - https://sketch.com -->
    <title>07</title>
    <desc>Created with Sketch.</desc>
    <g id="Page-1" stroke="none" stroke-width="1" fill="none" fill-rule="evenodd">
        <g id="03_Iconos" transform="translate(-2016.000000, -59.000000)" fill="#3B3C42">
            <g id="07" transform="translate(2016.263900, 59.347791)">
                <path d="M47.5758,106.473009 C48.3288,107.021009 49.2008,107.285009 50.0648,107.285009 C51.3758,107.285009 52.6678,106.679009 53.4968,105.538009 L60.1748,96.3560085 C61.5518,94.4620085 61.1338,91.8110085 59.2398,90.4350085 C57.3458,89.0570085 54.6948,89.4770085 53.3188,91.3690085 L46.6408,100.552009 C45.2638,102.446009 45.6818,105.097009 47.5758,106.473009" id="Fill-164"></path>
                <path d="M70.4323,96.7874085 L43.7303,133.537409 C42.3533,135.431409 42.7733,138.081409 44.6673,139.457409 C45.4193,140.004409 46.2913,140.267409 47.1553,140.267409 C48.4663,140.267409 49.7583,139.661409 50.5873,138.519409 L77.2893,101.769409 C78.6663,99.8764085 78.2463,97.2254085 76.3523,95.8504085 C74.4573,94.4724085 71.8073,94.8934085 70.4323,96.7874085" id="Fill-165"></path>
                <path d="M73.443,128.826509 C71.55,127.449509 68.899,127.868509 67.522,129.763509 L60.845,138.946509 C59.469,140.840509 59.888,143.490509 61.782,144.867509 C62.534,145.414509 63.406,145.678509 64.27,145.678509 C65.581,145.678509 66.873,145.072509 67.703,143.930509 L74.38,134.747509 C75.756,132.853509 75.337,130.203509 73.443,128.826509" id="Fill-166"></path>
                <path d="M42.6266,85.4495085 C41.8366,84.6595085 40.7466,84.1995085 39.6266,84.1995085 C38.5066,84.1995085 37.4166,84.6595085 36.6266,85.4495085 C35.8366,86.2295085 35.3876,87.3195085 35.3876,88.4395085 C35.3876,89.5595085 35.8366,90.6495085 36.6266,91.4395085 C37.4166,92.2295085 38.5066,92.6795085 39.6266,92.6795085 C40.7366,92.6795085 41.8366,92.2295085 42.6266,91.4395085 C43.4066,90.6495085 43.8666,89.5595085 43.8666,88.4395085 C43.8666,87.3295085 43.4066,86.2295085 42.6266,85.4495085" id="Fill-167"></path>
                <path d="M78.4069,150.129209 C79.1869,150.909209 80.2869,151.369209 81.3969,151.369209 C82.5169,151.369209 83.6069,150.909209 84.3969,150.129209 C85.1869,149.339209 85.6369,148.249209 85.6369,147.129209 C85.6369,146.009209 85.1869,144.919209 84.3969,144.129209 C83.6069,143.339209 82.5169,142.890209 81.3969,142.890209 C80.2869,142.890209 79.1869,143.339209 78.4069,144.129209 C77.6169,144.919209 77.1569,146.020209 77.1569,147.129209 C77.1569,148.239209 77.6169,149.339209 78.4069,150.129209" id="Fill-168"></path>
                <path d="M111.981,81.3714085 C111.992,81.3714085 112.002,81.3704085 112.011,81.3704085 L112.011,185.581409 L10.174,185.581409 L10.174,49.8914085 L72.386,49.8914085 C76.601,68.0714085 92.934,81.3714085 111.981,81.3714085 L111.981,81.3714085 Z M112.011,199.154409 C112.011,212.665409 107.115,214.527409 101.823,214.527409 L20.361,214.527409 C15.07,214.527409 10.174,212.665409 10.174,199.154409 L10.174,192.362409 L112.011,192.362409 L112.011,199.154409 Z M20.361,31.2264085 L72.442,31.2274085 C71.54,34.9914085 71.158,38.9424085 71.388,42.9994085 C71.391,43.0364085 71.395,43.0724085 71.398,43.1094085 L10.294,43.1094085 C11.072,32.7564085 15.553,31.2264085 20.361,31.2264085 L20.361,31.2264085 Z M127.157,31.5504085 C124.089,31.5504085 123.107,29.4564085 122.935,29.0164085 C122.93,28.9824085 122.918,28.9514085 122.912,28.9184085 C122.896,28.8334085 122.873,28.7534085 122.851,28.6714085 C122.819,28.5454085 122.784,28.4224085 122.737,28.3034085 C122.706,28.2214085 122.669,28.1434085 122.631,28.0654085 C122.578,27.9544085 122.52,27.8464085 122.456,27.7424085 C122.409,27.6664085 122.36,27.5954085 122.308,27.5234085 C122.236,27.4264085 122.16,27.3344085 122.078,27.2454085 C122.018,27.1804085 121.96,27.1164085 121.895,27.0564085 C121.806,26.9734085 121.711,26.8984085 121.615,26.8254085 C121.545,26.7724085 121.477,26.7194085 121.404,26.6724085 C121.298,26.6044085 121.185,26.5474085 121.072,26.4924085 C120.997,26.4544085 120.925,26.4134085 120.847,26.3824085 C120.717,26.3304085 120.581,26.2934085 120.443,26.2574085 C120.374,26.2394085 120.307,26.2134085 120.236,26.1994085 C120.024,26.1574085 119.806,26.1334085 119.582,26.1334085 C119.358,26.1334085 119.14,26.1574085 118.928,26.1994085 C118.857,26.2134085 118.791,26.2394085 118.721,26.2574085 C118.584,26.2934085 118.447,26.3294085 118.317,26.3824085 C118.239,26.4134085 118.168,26.4544085 118.092,26.4914085 C117.979,26.5474085 117.866,26.6044085 117.76,26.6724085 C117.686,26.7194085 117.619,26.7724085 117.549,26.8254085 C117.452,26.8984085 117.358,26.9734085 117.269,27.0564085 C117.205,27.1164085 117.145,27.1804085 117.086,27.2454085 C117.004,27.3344085 116.927,27.4264085 116.856,27.5234085 C116.804,27.5954085 116.755,27.6664085 116.709,27.7424085 C116.643,27.8464085 116.586,27.9544085 116.533,28.0654085 C116.496,28.1434085 116.459,28.2214085 116.427,28.3024085 C116.38,28.4224085 116.345,28.5454085 116.313,28.6714085 C116.292,28.7534085 116.268,28.8334085 116.252,28.9184085 C116.247,28.9514085 116.234,28.9824085 116.228,29.0164085 C116.056,29.4564085 115.073,31.5504085 112.006,31.5504085 C108.94,31.5504085 107.957,29.4564085 107.785,29.0164085 C107.78,28.9824085 107.767,28.9514085 107.761,28.9184085 C107.746,28.8334085 107.722,28.7534085 107.701,28.6714085 C107.669,28.5454085 107.633,28.4224085 107.586,28.3034085 C107.555,28.2214085 107.518,28.1434085 107.481,28.0654085 C107.427,27.9544085 107.37,27.8464085 107.305,27.7424085 C107.258,27.6664085 107.21,27.5954085 107.158,27.5234085 C107.085,27.4264085 107.009,27.3344085 106.927,27.2454085 C106.868,27.1804085 106.809,27.1164085 106.745,27.0564085 C106.656,26.9734085 106.561,26.8984085 106.464,26.8254085 C106.395,26.7724085 106.327,26.7194085 106.253,26.6724085 C106.148,26.6044085 106.035,26.5474085 105.921,26.4924085 C105.846,26.4544085 105.775,26.4134085 105.697,26.3824085 C105.567,26.3304085 105.43,26.2934085 105.293,26.2574085 C105.223,26.2394085 105.157,26.2134085 105.085,26.1994085 C104.874,26.1574085 104.656,26.1334085 104.431,26.1334085 C104.208,26.1334085 103.99,26.1574085 103.778,26.1994085 C103.707,26.2134085 103.64,26.2394085 103.571,26.2574085 C103.433,26.2934085 103.296,26.3294085 103.167,26.3824085 C103.088,26.4134085 103.017,26.4544085 102.942,26.4914085 C102.829,26.5474085 102.715,26.6044085 102.61,26.6724085 C102.536,26.7194085 102.468,26.7724085 102.399,26.8254085 C102.301,26.8984085 102.208,26.9734085 102.119,27.0564085 C102.054,27.1164085 101.995,27.1804085 101.936,27.2454085 C101.854,27.3344085 101.777,27.4264085 101.706,27.5234085 C101.654,27.5954085 101.605,27.6664085 101.558,27.7424085 C101.493,27.8464085 101.436,27.9544085 101.382,28.0654085 C101.345,28.1434085 101.308,28.2214085 101.277,28.3024085 C101.23,28.4224085 101.195,28.5454085 101.163,28.6714085 C101.141,28.7534085 101.118,28.8334085 101.102,28.9184085 C101.096,28.9514085 101.084,28.9824085 101.078,29.0164085 C100.906,29.4564085 99.923,31.5504085 96.856,31.5504085 C94.701,31.5504085 93.588,30.5204085 93.049,29.7534085 L98.638,22.0604085 L125.392,22.0604085 L130.964,29.7514085 C130.427,30.5194085 129.314,31.5504085 127.157,31.5504085 L127.157,31.5504085 Z M139.092,10.3304085 C130.983,3.09440855 120.524,-0.554591454 109.694,0.0684085464 C95.227,0.892408546 82.944,9.22540855 76.397,21.0544085 L20.361,21.0534085 C2.645,21.0534085 -1.13686838e-13,36.9964085 -1.13686838e-13,46.5004085 L-1.13686838e-13,199.154409 C-1.13686838e-13,208.695409 2.645,224.701409 20.361,224.701409 L101.823,224.701409 C119.54,224.701409 122.185,208.695409 122.185,199.154409 L122.185,80.0754085 C132.689,77.3734085 141.757,70.5714085 147.295,60.9394085 C147.322,60.8944085 147.335,60.8464085 147.358,60.8004085 C147.622,60.3184085 147.785,59.7734085 147.785,59.1844085 C147.785,57.3114085 146.267,55.7944085 144.394,55.7944085 L134.469,55.7944085 L134.469,35.8374085 C136.977,33.7904085 138.122,31.0014085 138.122,29.5234085 C138.122,29.2434085 138.078,28.9744085 138.014,28.7134085 C137.955,28.1404085 137.763,27.5744085 137.401,27.0744085 L129.869,16.6804085 C129.231,15.8004085 128.21,15.2794085 127.123,15.2794085 L96.911,15.2794085 C95.826,15.2794085 94.805,15.7994085 94.168,16.6774085 L86.615,27.0714085 C86.252,27.5724085 86.059,28.1394085 86,28.7134085 C85.935,28.9744085 85.891,29.2434085 85.891,29.5234085 C85.891,31.0054085 87.043,33.8064085 89.564,35.8534085 L89.564,59.1844085 C89.564,61.0584085 91.082,62.5754085 92.955,62.5754085 C94.828,62.5754085 96.345,61.0584085 96.345,59.1844085 L96.345,38.3054085 C96.517,38.3114085 96.68,38.3314085 96.856,38.3314085 C100.176,38.3314085 102.668,37.1594085 104.431,35.6264085 C106.196,37.1594085 108.687,38.3314085 112.006,38.3314085 C115.327,38.3314085 117.818,37.1594085 119.582,35.6264085 C121.346,37.1594085 123.837,38.3314085 127.157,38.3314085 C127.34,38.3314085 127.509,38.3114085 127.688,38.3044085 L127.688,59.1844085 C127.688,61.0584085 129.206,62.5754085 131.079,62.5754085 L137.893,62.5754085 C131.938,69.6294085 123.341,73.9974085 113.934,74.5334085 C95.257,75.5794085 79.222,61.2774085 78.16,42.6144085 C77.097,23.9504085 91.416,7.90240855 110.079,6.84040855 C119.123,6.31440855 127.82,9.36040855 134.577,15.3904085 C141.334,21.4194085 145.338,29.7184085 145.853,38.7594085 C145.96,40.6294085 147.557,42.0654085 149.431,41.9524085 C151.301,41.8464085 152.731,40.2434085 152.625,38.3744085 C152.006,27.5234085 147.201,17.5644085 139.092,10.3304085 L139.092,10.3304085 Z" id="Fill-169"></path>
                <path d="M116.7622,62.5755085 C118.6352,62.5755085 120.1532,61.0575085 120.1532,59.1845085 L120.1532,46.5065085 C120.1532,44.6335085 118.6352,43.1155085 116.7622,43.1155085 L107.2502,43.1155085 C105.3772,43.1155085 103.8602,44.6335085 103.8602,46.5065085 L103.8602,59.1845085 C103.8602,61.0575085 105.3772,62.5755085 107.2502,62.5755085 C109.1232,62.5755085 110.6412,61.0575085 110.6412,59.1845085 L110.6412,49.8965085 L113.3712,49.8965085 L113.3712,59.1845085 C113.3712,61.0575085 114.8892,62.5755085 116.7622,62.5755085" id="Fill-170"></path>
            </g>
        </g>
    </g>
</svg>