<?xml version="1.0" encoding="UTF-8"?>
<svg width="205px" height="225px" viewBox="0 0 205 225" version="1.1" xmlns="http://www.w3.org/2000/svg" xmlns:xlink="http://www.w3.org/1999/xlink">
    <!-- Generator: Sketch 63.1 (92452) - https://sketch.com -->
    <title>08</title>
    <desc>Created with Sketch.</desc>
    <g id="Page-1" stroke="none" stroke-width="1" fill="none" fill-rule="evenodd">
        <g id="03_Iconos" transform="translate(-2293.000000, -59.000000)">
            <g id="08" transform="translate(2293.479200, 59.686100)">
                <path d="M101.462,10.1 C100.598,10.1 99.763,10.13 98.941,10.175 L20.362,10.186 C15.553,10.186 11.071,11.716 10.294,22.069 L10.174,28.85 L10.174,164.54 L10.174,171.322 L10.174,178.114 C10.174,191.624 15.07,193.487 20.361,193.487 L20.361,203.661 C2.646,203.661 -2.27373675e-13,187.655 -2.27373675e-13,178.114 L-2.27373675e-13,25.459 C-2.27373675e-13,15.955 2.646,0.012 20.361,0.012 L101.823,5.68434189e-14" id="Fill-147" fill="#3B3C42"></path>
                <path d="M198.5625,198.2894 C198.5625,209.9894 194.9725,218.7494 183.2885,218.7494 L101.8255,218.7494 C90.1355,218.7494 86.5505,209.9894 86.5505,198.2894 L86.5505,45.6344 C86.5505,33.9344 90.1355,25.2744 101.8255,25.2744 L183.2885,25.2634 C194.9725,25.2634 198.5625,33.9344 198.5625,45.6344 L198.5625,198.2894 Z" id="Stroke-148" stroke="#3B3C42" stroke-width="10.173" stroke-linecap="round" stroke-linejoin="round"></path>
                <line x1="86.5508" y1="188.1063" x2="198.5628" y2="188.1063" id="Stroke-149" stroke="#3B3C42" stroke-width="6.782" stroke-linecap="round" stroke-linejoin="round"></line>
                <line x1="86.5508" y1="45.6347" x2="198.5628" y2="45.6347" id="Stroke-150" stroke="#3B3C42" stroke-width="6.782" stroke-linecap="round" stroke-linejoin="round"></line>
                <line x1="128.6241" y1="135.163" x2="155.3261" y2="98.413" id="Stroke-151" stroke="#3B3C42" stroke-width="8.477" stroke-linecap="round" stroke-linejoin="round"></line>
                <line x1="131.5342" y1="102.1801" x2="138.2112" y2="92.9971" id="Stroke-152" stroke="#3B3C42" stroke-width="8.477" stroke-linecap="round" stroke-linejoin="round"></line>
                <line x1="145.7393" y1="140.5731" x2="152.4163" y2="131.3901" id="Stroke-153" stroke="#3B3C42" stroke-width="8.477" stroke-linecap="round" stroke-linejoin="round"></line>
                <line x1="121.0909" y1="87.5775" x2="121.0909" y2="87.5775" id="Stroke-154" stroke="#3B3C42" stroke-width="8.477" stroke-linecap="round" stroke-linejoin="round"></line>
                <line x1="162.8643" y1="146.264" x2="162.8643" y2="146.264" id="Stroke-155" stroke="#3B3C42" stroke-width="8.477" stroke-linecap="round" stroke-linejoin="round"></line>
                <line x1="47.7354" y1="114.4525" x2="67.1904" y2="87.5775" id="Stroke-156" stroke="#3B3C42" stroke-width="8.477" stroke-linecap="round" stroke-linejoin="round"></line>
                <line x1="50.6456" y1="81.4696" x2="57.3236" y2="72.2866" id="Stroke-157" stroke="#3B3C42" stroke-width="8.477" stroke-linecap="round" stroke-linejoin="round"></line>
                <line x1="64.8506" y1="119.8627" x2="67.1906" y2="116.8687" id="Stroke-158" stroke="#3B3C42" stroke-width="8.477" stroke-linecap="round" stroke-linejoin="round"></line>
                <line x1="40.2022" y1="66.8671" x2="40.2022" y2="66.8671" id="Stroke-159" stroke="#3B3C42" stroke-width="8.477" stroke-linecap="round" stroke-linejoin="round"></line>
                <line x1="115.6915" y1="5.0931" x2="25.4545" y2="5.0931" id="Stroke-160" stroke="#3B3C42" stroke-width="10.173" stroke-linecap="round" stroke-linejoin="round"></line>
                <line x1="66.1856" y1="198.5682" x2="20.3616" y2="198.5682" id="Stroke-161" stroke="#3B3C42" stroke-width="10.173" stroke-linecap="round" stroke-linejoin="round"></line>
                <line x1="68.1075" y1="25.4584" x2="8.1905" y2="25.4584" id="Stroke-162" stroke="#3B3C42" stroke-width="6.782" stroke-linecap="round" stroke-linejoin="round"></line>
                <line x1="68.1075" y1="168.0189" x2="8.1905" y2="168.0189" id="Stroke-163" stroke="#3B3C42" stroke-width="6.782" stroke-linecap="round" stroke-linejoin="round"></line>
            </g>
        </g>
    </g>
</svg>