<?xml version="1.0" encoding="UTF-8"?>
<svg width="180px" height="225px" viewBox="0 0 180 225" version="1.1" xmlns="http://www.w3.org/2000/svg" xmlns:xlink="http://www.w3.org/1999/xlink">
    <!-- Generator: Sketch 63.1 (92452) - https://sketch.com -->
    <title>24</title>
    <desc>Created with Sketch.</desc>
    <g id="Page-1" stroke="none" stroke-width="1" fill="none" fill-rule="evenodd" stroke-linecap="round" stroke-linejoin="round">
        <g id="03_Iconos" transform="translate(-2308.000000, -620.000000)" stroke="#3B3C42">
            <g id="24" transform="translate(2313.841100, 625.922500)">
                <line x1="22.9116" y1="213.8245" x2="139.8256" y2="213.8245" id="Stroke-179" stroke-width="10.173"></line>
                <line x1="26.1176" y1="162.9114" x2="137.4696" y2="162.9114" id="Stroke-180" stroke-width="6.782"></line>
                <line x1="25.4575" y1="20.3509" x2="137.4695" y2="20.3509" id="Stroke-181" stroke-width="6.782"></line>
                <path d="M137.4692,121.431 L137.4692,173.096 C137.4692,183.676 132.7602,193.46 122.1952,193.46 L40.7322,193.634 C30.1602,193.634 25.4572,183.676 25.4572,173.096 L25.4572,20.351 C25.4572,9.771 30.1602,0.01 40.7322,0.01 L122.1952,2.84217094e-14 C132.7602,2.84217094e-14 137.4692,9.771 137.4692,20.351 L137.4692,66.195" id="Stroke-182" stroke-width="10.173"></path>
                <path d="M137.4692,121.431 L117.2132,104.909 C117.2132,104.909 104.2082,93.096 117.6662,79.117 C118.4012,78.353 121.6512,78.522 122.6412,79.277 C138.8652,91.653 141.2842,93.904 149.6922,100.017 C158.4002,106.36 168.4462,111.301 168.4462,137.476 C168.4462,150.905 168.3902,175.961 168.3902,179.255 C168.3902,192.991 159.2972,213.825 139.8252,213.825" id="Stroke-183" stroke-width="10.173"></path>
                <path d="M22.9116,213.8245 C15.8826,213.8245 10.1826,208.1265 10.1826,201.0955 C10.1826,194.0665 15.8826,188.3685 22.9116,188.3685" id="Stroke-184" stroke-width="10.173"></path>
                <path d="M12.729,188.3685 C5.699,188.3685 2.27373675e-13,182.6695 2.27373675e-13,175.6395 C2.27373675e-13,168.6095 5.699,162.9115 12.729,162.9115" id="Stroke-185" stroke-width="10.173"></path>
                <path d="M12.729,162.9114 C5.699,162.9114 2.27373675e-13,157.2124 2.27373675e-13,150.1824 C2.27373675e-13,143.1524 5.699,137.4544 12.729,137.4544" id="Stroke-186" stroke-width="10.173"></path>
                <path d="M12.729,137.4544 C5.699,137.4544 2.27373675e-13,131.7564 2.27373675e-13,124.7254 C2.27373675e-13,117.6964 5.699,111.9974 12.729,111.9974" id="Stroke-187" stroke-width="10.173"></path>
                <line x1="12.729" y1="111.9974" x2="25.458" y2="111.9974" id="Stroke-188" stroke-width="10.173"></line>
                <line x1="12.729" y1="137.4759" x2="25.458" y2="137.4759" id="Stroke-189" stroke-width="10.173"></line>
                <line x1="12.729" y1="162.9544" x2="25.458" y2="162.9544" id="Stroke-190" stroke-width="10.173"></line>
                <line x1="12.729" y1="188.4329" x2="29.924" y2="188.4329" id="Stroke-191" stroke-width="10.173"></line>
                <line x1="67.5307" y1="109.8997" x2="94.2327" y2="73.1507" id="Stroke-192" stroke-width="8.477"></line>
                <line x1="70.4409" y1="76.9173" x2="77.1179" y2="67.7333" id="Stroke-193" stroke-width="8.477"></line>
                <line x1="84.645" y1="115.3099" x2="91.323" y2="106.1269" id="Stroke-194" stroke-width="8.477"></line>
                <line x1="59.9965" y1="62.3148" x2="59.9965" y2="62.3148" id="Stroke-195" stroke-width="8.477"></line>
                <line x1="101.771" y1="121.0013" x2="101.771" y2="121.0013" id="Stroke-196" stroke-width="8.477"></line>
            </g>
        </g>
    </g>
</svg>