<?xml version="1.0" encoding="UTF-8"?>
<svg width="139px" height="182px" viewBox="0 0 139 182" version="1.1" xmlns="http://www.w3.org/2000/svg" xmlns:xlink="http://www.w3.org/1999/xlink">
    <!-- Generator: Sketch 63.1 (92452) - https://sketch.com -->
    <title>30</title>
    <desc>Created with Sketch.</desc>
    <g id="Page-1" stroke="none" stroke-width="1" fill="none" fill-rule="evenodd">
        <g id="03_Iconos" transform="translate(-1690.000000, -926.000000)" fill="#3B3C42">
            <g id="30" transform="translate(1690.176720, 926.110386)">
                <path d="M33.2703797,64.745014 C39.8673797,69.539014 49.1043797,68.061014 53.9113797,61.456014 L71.2723797,37.560014 C76.0743797,30.959014 74.6113797,21.717014 68.0033797,16.925014 C61.4033797,12.113014 52.1663797,13.580014 47.3733797,20.190014 L29.9943797,44.096014 C25.2053797,50.701014 26.6503797,59.929014 33.2703797,64.745014 M112.54338,31.035014 C105.95238,26.223014 96.7093797,27.701014 91.9163797,34.295014 L22.4353797,129.925014 C17.6333797,136.518014 19.1013797,145.769014 25.6933797,150.558014 C32.3023797,155.357014 41.5413797,153.901014 46.3333797,147.292014 L115.82138,51.658014 C120.62338,45.057014 119.15538,35.824014 112.54338,31.035014 M26.7233797,23.454014 C31.5253797,16.860014 30.0563797,7.61101397 23.4683797,2.81801397 C16.8483797,-1.97598603 7.61137968,-0.498986027 2.82437968,6.07501397 C-1.97362032,12.686014 -0.510620318,21.928014 6.08937968,26.720014 C12.6823797,31.518014 21.9323797,30.055014 26.7233797,23.454014 M132.16038,154.849014 C125.56938,150.062014 116.31738,151.530014 111.52838,158.122014 C106.73638,164.724014 108.19038,173.967014 114.79138,178.762014 C121.40238,183.565014 130.63838,182.097014 135.43738,175.488014 C140.23138,168.894014 138.76238,159.645014 132.16038,154.849014 M104.98038,116.840014 C98.3903797,112.047014 89.1383797,113.516014 84.3543797,120.115014 L66.9783797,144.028014 C62.1873797,150.622014 63.6413797,159.854014 70.2383797,164.667014 C76.8493797,169.473014 86.0893797,167.995014 90.8833797,161.390014 L108.26638,137.485014 C113.05138,130.885014 111.59138,121.641014 104.98038,116.840014" id="Fill-228"></path>
            </g>
        </g>
    </g>
</svg>