<svg width="14" height="14" viewBox="0 0 14 14" fill="none" xmlns="http://www.w3.org/2000/svg">
<path fill-rule="evenodd" clip-rule="evenodd" d="M4.75001 4.08691C4.75001 3.49018 4.98707 2.91788 5.40902 2.49592C5.83098 2.07397 6.40328 1.83691 7.00001 1.83691C7.59675 1.83691 8.16905 2.07397 8.591 2.49592C9.01296 2.91788 9.25001 3.49018 9.25001 4.08691H4.75001ZM3.25001 4.08691C3.25001 3.09235 3.6451 2.13853 4.34836 1.43526C5.05162 0.732002 6.00545 0.336914 7.00001 0.336914C7.99458 0.336914 8.9484 0.732002 9.65166 1.43526C10.3549 2.13853 10.75 3.09235 10.75 4.08691H13C13.1042 4.08691 13.2072 4.10861 13.3026 4.15063C13.3979 4.19266 13.4834 4.25408 13.5537 4.331C13.624 4.40791 13.6775 4.49862 13.7108 4.59735C13.744 4.69607 13.7564 4.80065 13.747 4.90441L13.1208 11.7909C13.0699 12.3499 12.8118 12.8698 12.3974 13.2483C11.9829 13.6269 11.4419 13.8368 10.8805 13.8369H3.11951C2.55818 13.8368 2.01715 13.6269 1.60267 13.2483C1.18818 12.8698 0.930158 12.3499 0.879263 11.7909L0.253013 4.90441C0.243637 4.80065 0.255981 4.69607 0.289261 4.59735C0.32254 4.49862 0.376024 4.40791 0.446303 4.331C0.516583 4.25408 0.602115 4.19266 0.69745 4.15063C0.792784 4.10861 0.895828 4.08691 1.00001 4.08691H3.25001Z" fill="white"/>
</svg>
