<svg width="43" height="43" viewBox="0 0 43 43" fill="none" xmlns="http://www.w3.org/2000/svg">
<path d="M3.33337 15.587V39.587H39.3334V6.58698H33.3334V8.08698C33.3334 8.4848 33.1753 8.86633 32.894 9.14763C32.6127 9.42894 32.2312 9.58698 31.8334 9.58698C31.4355 9.58698 31.054 9.42894 30.7727 9.14763C30.4914 8.86633 30.3334 8.4848 30.3334 8.08698V6.58698H12.3334V8.08698C12.3334 8.4848 12.1753 8.86633 11.894 9.14763C11.6127 9.42894 11.2312 9.58698 10.8334 9.58698C10.4355 9.58698 10.054 9.42894 9.77271 9.14763C9.49141 8.86633 9.33337 8.4848 9.33337 8.08698V6.58698H3.33337V12.587H39.3334V15.587H3.33337ZM12.3334 3.58698H30.3334V2.08698C30.3334 1.68915 30.4914 1.30762 30.7727 1.02631C31.054 0.74501 31.4355 0.586975 31.8334 0.586975C32.2312 0.586975 32.6127 0.74501 32.894 1.02631C33.1753 1.30762 33.3334 1.68915 33.3334 2.08698V3.58698H40.8334C41.2312 3.58698 41.6127 3.74501 41.894 4.02632C42.1753 4.30762 42.3334 4.68915 42.3334 5.08698V41.087C42.3334 41.4848 42.1753 41.8663 41.894 42.1476C41.6127 42.4289 41.2312 42.587 40.8334 42.587H1.83337C1.43555 42.587 1.05402 42.4289 0.772714 42.1476C0.491409 41.8663 0.333374 41.4848 0.333374 41.087V5.08698C0.333374 4.68915 0.491409 4.30762 0.772714 4.02632C1.05402 3.74501 1.43555 3.58698 1.83337 3.58698H9.33337V2.08698C9.33337 1.68915 9.49141 1.30762 9.77271 1.02631C10.054 0.74501 10.4355 0.586975 10.8334 0.586975C11.2312 0.586975 11.6127 0.74501 11.894 1.02631C12.1753 1.30762 12.3334 1.68915 12.3334 2.08698V3.58698ZM10.8334 21.587H13.8334C14.2312 21.587 14.6127 21.745 14.894 22.0263C15.1753 22.3076 15.3334 22.6891 15.3334 23.087C15.3334 23.4848 15.1753 23.8663 14.894 24.1476C14.6127 24.4289 14.2312 24.587 13.8334 24.587H10.8334C10.4355 24.587 10.054 24.4289 9.77271 24.1476C9.49141 23.8663 9.33337 23.4848 9.33337 23.087C9.33337 22.6891 9.49141 22.3076 9.77271 22.0263C10.054 21.745 10.4355 21.587 10.8334 21.587ZM10.8334 30.587H13.8334C14.2312 30.587 14.6127 30.745 14.894 31.0263C15.1753 31.3076 15.3334 31.6891 15.3334 32.087C15.3334 32.4848 15.1753 32.8663 14.894 33.1476C14.6127 33.4289 14.2312 33.587 13.8334 33.587H10.8334C10.4355 33.587 10.054 33.4289 9.77271 33.1476C9.49141 32.8663 9.33337 32.4848 9.33337 32.087C9.33337 31.6891 9.49141 31.3076 9.77271 31.0263C10.054 30.745 10.4355 30.587 10.8334 30.587ZM19.8334 21.587H22.8334C23.2312 21.587 23.6127 21.745 23.894 22.0263C24.1753 22.3076 24.3334 22.6891 24.3334 23.087C24.3334 23.4848 24.1753 23.8663 23.894 24.1476C23.6127 24.4289 23.2312 24.587 22.8334 24.587H19.8334C19.4355 24.587 19.054 24.4289 18.7727 24.1476C18.4914 23.8663 18.3334 23.4848 18.3334 23.087C18.3334 22.6891 18.4914 22.3076 18.7727 22.0263C19.054 21.745 19.4355 21.587 19.8334 21.587ZM19.8334 30.587H22.8334C23.2312 30.587 23.6127 30.745 23.894 31.0263C24.1753 31.3076 24.3334 31.6891 24.3334 32.087C24.3334 32.4848 24.1753 32.8663 23.894 33.1476C23.6127 33.4289 23.2312 33.587 22.8334 33.587H19.8334C19.4355 33.587 19.054 33.4289 18.7727 33.1476C18.4914 32.8663 18.3334 32.4848 18.3334 32.087C18.3334 31.6891 18.4914 31.3076 18.7727 31.0263C19.054 30.745 19.4355 30.587 19.8334 30.587ZM28.8334 21.587H31.8334C32.2312 21.587 32.6127 21.745 32.894 22.0263C33.1753 22.3076 33.3334 22.6891 33.3334 23.087C33.3334 23.4848 33.1753 23.8663 32.894 24.1476C32.6127 24.4289 32.2312 24.587 31.8334 24.587H28.8334C28.4355 24.587 28.054 24.4289 27.7727 24.1476C27.4914 23.8663 27.3334 23.4848 27.3334 23.087C27.3334 22.6891 27.4914 22.3076 27.7727 22.0263C28.054 21.745 28.4355 21.587 28.8334 21.587ZM28.8334 30.587H31.8334C32.2312 30.587 32.6127 30.745 32.894 31.0263C33.1753 31.3076 33.3334 31.6891 33.3334 32.087C33.3334 32.4848 33.1753 32.8663 32.894 33.1476C32.6127 33.4289 32.2312 33.587 31.8334 33.587H28.8334C28.4355 33.587 28.054 33.4289 27.7727 33.1476C27.4914 32.8663 27.3334 32.4848 27.3334 32.087C27.3334 31.6891 27.4914 31.3076 27.7727 31.0263C28.054 30.745 28.4355 30.587 28.8334 30.587Z" fill="#36A0BF"/>
</svg>
