<svg width="40" height="41" viewBox="0 0 40 41" fill="none" xmlns="http://www.w3.org/2000/svg">
<mask id="mask0_135_1348" style="mask-type:luminance" maskUnits="userSpaceOnUse" x="0" y="0" width="40" height="41">
<path d="M0 0.0869179H40V40.0869H0V0.0869179Z" fill="white"/>
</mask>
<g mask="url(#mask0_135_1348)">
<path d="M38.8281 20.0869C38.8281 30.4422 30.3554 38.915 20 38.915C9.64461 38.915 1.17188 30.4422 1.17188 20.0869C1.17188 9.7316 9.64461 1.25879 20 1.25879C30.3554 1.25879 38.8281 9.7316 38.8281 20.0869Z" stroke="#36A0BF" stroke-width="2" stroke-miterlimit="10"/>
<path d="M20 38.915V1.25879" stroke="#36A0BF" stroke-width="2" stroke-miterlimit="10"/>
<path d="M29.375 20.0869C29.375 30.4422 25.1777 38.915 20 38.915C14.8223 38.915 10.625 30.4422 10.625 20.0869C10.625 9.7316 14.8223 1.25879 20 1.25879C25.1777 1.25879 29.375 9.7316 29.375 20.0869Z" stroke="#36A0BF" stroke-width="2" stroke-miterlimit="10"/>
<path d="M38.8281 20.0869H1.17188" stroke="#36A0BF" stroke-width="2" stroke-miterlimit="10"/>
<path d="M35.5047 9.54004H4.4953" stroke="#36A0BF" stroke-width="2" stroke-miterlimit="10"/>
<path d="M35.5047 30.6338H4.4953" stroke="#36A0BF" stroke-width="2" stroke-miterlimit="10"/>
</g>
</svg>
