<svg width="82" height="93" viewBox="0 0 82 93" fill="none" xmlns="http://www.w3.org/2000/svg">
<path d="M69.9397 16.4896C68.8476 15.3876 67.7088 14.3609 66.5301 13.4095C59.973 20.441 54.896 26.29 53.7262 28.3565C53.6722 28.452 50.9025 33.4413 50.7076 39.5613C50.7071 39.5756 50.7064 39.59 50.7058 39.6043C50.6924 40.0541 50.6916 40.5094 50.7081 40.9695C50.7411 41.8956 49.2224 44.3192 49.0364 45.5791C49.0131 45.7366 48.9905 45.9189 48.9659 46.1155C48.7931 47.4907 48.5211 49.5579 47.2554 48.6385C46.7321 48.2585 46.3776 47.5234 46.1566 46.6721C46.0434 46.2361 45.9658 45.7711 45.9196 45.3049C45.9135 45.2429 45.9072 45.1812 45.9021 45.1193C45.8143 44.0414 45.8902 42.9883 46.0808 42.3513C46.0995 42.288 46.1117 42.2002 46.1199 42.1024C46.1211 42.0866 46.1226 42.0709 46.1237 42.054C46.144 41.722 46.1023 41.2373 45.9752 40.7109L45.9749 40.7096C45.7159 39.6363 45.1011 38.4058 43.9115 38.0167C42.6143 37.5919 39.16 41.9568 36.8887 43.8867C35.2023 45.3198 33.356 48.0009 30.5303 51.2497C30.1119 51.7308 29.1309 52.2217 28.5033 52.2024C27.4 52.1684 27.3673 50.815 27.4967 49.999C27.6893 48.788 28.5416 47.8248 29.2925 46.9023C29.4249 46.74 29.5381 46.5843 29.6452 46.4601C31.2527 44.5962 35.9468 38.5149 35.6136 38.3218C35.3269 38.1554 34.6951 37.8285 30.055 42.3679C28.2747 44.1097 26.2445 45.566 24.4317 47.263C23.6463 47.9981 22.5529 48.735 21.4704 48.1423C21.2619 48.0281 21.1073 47.843 20.9936 47.6276C20.8952 47.441 20.8323 47.2321 20.8033 47.0155C20.7998 46.9891 20.797 46.9624 20.7944 46.9361C20.7891 46.8785 20.7833 46.8219 20.7825 46.7645C20.7818 46.6834 20.7841 46.603 20.7927 46.5241C20.796 46.4929 20.8023 46.4632 20.8071 46.4325C20.8173 46.3677 20.83 46.3042 20.8467 46.243C20.8538 46.2169 20.8609 46.1913 20.8691 46.1659C20.8965 46.0825 20.9279 46.0018 20.968 45.9293C21.1502 45.6006 21.4174 45.3295 21.681 45.0627C23.6085 43.1145 25.5142 41.1477 27.4168 39.1749C28.8779 37.66 31.3537 35.2451 31.9216 34.2151C32.0122 34.0509 32.0589 33.9186 32.0403 33.8343C32.0403 33.8343 32.0365 33.7793 31.9868 33.7281C31.9584 33.6986 31.915 33.6707 31.8487 33.6546C31.7386 33.628 31.5635 33.6362 31.2908 33.7271C30.7033 33.9229 29.6569 34.5072 27.7872 35.9858C26.2333 37.2148 24.0797 38.4601 21.5438 40.8998C21.5438 40.8998 19.5239 42.2561 18.7322 41.0906C18.5468 40.8177 18.4536 40.5455 18.4313 40.2774C18.3341 39.1166 19.5673 38.0392 20.407 37.3719C21.7219 36.3266 23.0114 35.2423 24.3142 34.1767C24.5644 33.9718 24.8123 33.7639 25.064 33.5611C25.6279 33.1074 26.2744 32.6535 26.9342 32.2121C27.264 31.9914 27.5969 31.7735 27.9248 31.5605C29.2359 30.7082 30.4613 29.9303 31.0461 29.3269C31.1926 29.1761 31.2986 29.036 31.3562 28.9088C31.3562 28.9088 31.6384 27.8931 26.7733 28.9016C25.4957 29.1663 23.4712 30.0251 21.3984 30.7926C21.3984 30.7926 19.8731 31.3116 19.3935 30.4283C19.3397 30.3292 19.2818 30.1805 19.2499 30.0094C19.189 29.6843 19.2311 29.27 19.6402 28.9041C19.7292 28.8243 19.8358 28.7469 19.9621 28.6737C19.9621 28.6737 20.1329 28.5572 20.4372 28.3634C21.5349 27.6642 24.3687 25.9605 27.1673 25.0962C27.3412 25.0424 27.5147 24.9909 27.688 24.9441C27.9456 24.8744 28.2016 24.8132 28.4554 24.7613C28.5823 24.7354 28.7084 24.7119 28.8337 24.6909C28.9048 24.6791 28.9738 24.6596 29.0443 24.6453C30.463 24.3539 31.7567 23.5548 33.0084 22.8141C33.9196 22.2749 35.0742 21.673 36.3454 21.0598C36.6631 20.9064 36.9882 20.7523 37.3186 20.5984C38.3097 20.1365 39.4681 19.8913 40.3818 19.2356C46.3231 14.9726 52.8371 8.27347 60.4769 0.225828C60.5112 0.189727 60.4686 0.132652 60.4252 0.156975L50.7355 5.57078C37.3795 2.281 22.7016 5.85779 12.2193 16.3014C-3.83718 32.2984 -4.00568 58.5426 11.8536 74.7388C14.5543 77.4968 17.5432 79.7895 20.7231 81.6181C28.0174 74.0052 34.2038 67.0631 35.3969 64.9552C35.4408 64.8776 37.6956 60.8159 37.8545 55.8338C37.855 55.822 37.8555 55.8104 37.8558 55.7987C37.8667 55.4325 37.8674 55.0621 37.854 54.6872C37.8271 53.9332 39.0636 51.9602 39.2148 50.9346C39.2336 50.8063 39.2521 50.658 39.2722 50.498C39.4127 49.3784 39.6343 47.6957 40.6647 48.4441C41.0905 48.7534 41.3791 49.3518 41.559 50.0449C41.6511 50.3997 41.7143 50.7784 41.7518 51.1578C41.7569 51.2085 41.762 51.2584 41.766 51.3089C41.8376 52.1863 41.7757 53.0438 41.6206 53.5622C41.6051 53.6137 41.5955 53.6851 41.5889 53.7647C41.5876 53.7778 41.5866 53.7904 41.5856 53.8042C41.5691 54.0746 41.6031 54.4691 41.7064 54.8977L41.7066 54.8987C41.9175 55.7726 42.4181 56.7742 43.3864 57.0912C44.4425 57.4368 47.2546 53.8835 49.1037 52.3125C50.4767 51.146 51.9797 48.9633 54.2799 46.3185C54.6204 45.927 55.4192 45.5274 55.93 45.5433C56.828 45.5709 56.8549 46.6726 56.7494 47.3368C56.5926 48.3228 55.8988 49.1067 55.2875 49.8577C55.1797 49.9898 55.0876 50.1165 55.0003 50.2177C53.6917 51.7352 49.8705 56.6856 50.1415 56.8428C50.375 56.9782 50.8896 57.2445 54.6666 53.5492C56.1158 52.1312 57.7687 50.9456 59.2445 49.5643C59.8837 48.9659 60.7738 48.366 61.6551 48.8484C61.8248 48.9413 61.951 49.0919 62.0433 49.2675C62.1235 49.4194 62.1748 49.5893 62.1984 49.766C62.2012 49.7875 62.2037 49.809 62.2057 49.8308C62.21 49.8776 62.2149 49.9237 62.2154 49.9706C62.2161 50.0367 62.2141 50.1022 62.207 50.1665C62.2042 50.1921 62.1991 50.2159 62.1953 50.241C62.1869 50.2937 62.1766 50.3452 62.1631 50.3951C62.1573 50.4163 62.1517 50.4371 62.1448 50.4578C62.1225 50.5257 62.0969 50.5915 62.0641 50.6504C61.916 50.9182 61.6982 51.1386 61.4836 51.356C59.9146 52.9419 58.3629 54.5431 56.8141 56.1492C55.6247 57.3825 53.6092 59.3483 53.1469 60.1868C53.0733 60.3205 53.0353 60.428 53.0502 60.4966C53.0502 60.4966 53.0535 60.5414 53.0939 60.5832C53.117 60.6072 53.1522 60.63 53.2063 60.6431C53.2961 60.6648 53.4385 60.6582 53.6605 60.5842C54.1385 60.4247 54.9906 59.9492 56.5126 58.7454C57.7776 57.7448 59.5307 56.7311 61.5952 54.7451C61.5952 54.7451 63.2395 53.6411 63.884 54.59C64.0348 54.8119 64.1109 55.0336 64.1289 55.2518C64.2078 56.1968 63.204 57.0737 62.5204 57.617C61.4498 58.4681 60.4003 59.3506 59.3396 60.2183C59.1359 60.385 58.9341 60.5545 58.7291 60.7194C58.2701 61.0888 57.7438 61.458 57.2066 61.8178C56.9381 61.9975 56.6669 62.1747 56.4 62.348C55.3327 63.0419 54.3352 63.675 53.8592 64.1664C53.7399 64.289 53.6537 64.403 53.6067 64.5069C53.6067 64.5069 53.3771 65.3336 57.3376 64.5128C58.3777 64.2972 60.0258 63.5982 61.7132 62.9733C61.7132 62.9733 62.9548 62.5505 63.3453 63.2697C63.389 63.3504 63.4362 63.4712 63.4621 63.6108C63.5115 63.8755 63.4773 64.2127 63.1443 64.5105C63.0718 64.5755 62.985 64.6385 62.8822 64.6982C62.8822 64.6982 62.7432 64.7929 62.4953 64.9506C61.6016 65.5197 59.2947 66.9067 57.0166 67.6105C56.875 67.6541 56.7336 67.6963 56.5926 67.7342C56.383 67.7908 56.1744 67.8407 55.9681 67.8829C55.8648 67.9039 55.762 67.9231 55.66 67.94C55.6022 67.9498 55.5459 67.9654 55.4888 67.9772C54.3337 68.2143 53.2804 68.8648 52.2616 69.4678C51.5199 69.9069 50.58 70.3967 49.5452 70.896C49.2866 71.0209 49.022 71.1461 48.7527 71.2716C47.9461 71.6477 47.0029 71.8471 46.2591 72.3809C40.4754 76.531 34.0254 83.5159 26.1379 91.8239C26.0448 91.922 26.1643 92.0745 26.2797 92.0049C28.1362 90.886 32.8511 88.1386 35.4281 86.6402C47.6723 88.3229 60.5262 84.4163 69.9382 74.9195C85.9307 58.784 85.9307 32.6243 69.9397 16.4896Z" fill="#36A0BF"/>
</svg>
