<svg width="24" height="22" viewBox="0 0 24 22" fill="none" xmlns="http://www.w3.org/2000/svg">
<path d="M19.3313 1.47426C18.1256 1.78108 16.8855 1.98817 15.6455 2.08982L12.1494 2.37633C11.1302 2.38341 10.1441 2.75165 9.36947 3.41508L9.35137 3.4306L7.00143 5.73647C5.79586 5.46711 4.53024 5.59638 3.36241 6.13148C1.65874 6.91198 0.472865 8.414 0.108846 10.2522C-0.287711 12.2548 0.416133 14.3387 1.94563 15.6908L8.95285 21.8849L15.96 15.6907C17.0285 14.7462 17.7276 13.3414 17.8781 11.8687C18.1176 11.7686 18.4372 11.7234 18.8721 11.7267C18.8911 11.7269 18.9098 11.727 18.9288 11.727C20.7404 11.7269 22.4627 11.0305 23.7838 9.76252L24.0001 9.55491V0.286133L19.3313 1.47426ZM15.0285 14.6369L8.95285 20.0076L2.87724 14.6369C1.72096 13.6147 1.1889 12.0393 1.48868 10.5254C1.76386 9.13576 2.66035 8.00029 3.94829 7.41019C5.23624 6.82009 6.68162 6.88263 7.91382 7.58174L8.95285 8.17128L9.99187 7.58174C11.6683 6.63058 13.6743 6.85084 15.019 8.05903L12.2546 10.0619C11.7757 10.3881 11.4586 10.8819 11.361 11.4537C11.2627 12.03 11.401 12.6055 11.7506 13.0741C12.1596 13.6224 12.8017 13.9214 13.4539 13.9214C13.7912 13.9214 14.1313 13.8414 14.4432 13.6746L16.2699 12.7114C16.0246 13.4593 15.5954 14.1357 15.0285 14.6369ZM22.5935 8.94512C21.5563 9.84485 20.2515 10.3307 18.8834 10.3202C18.4167 10.3164 17.725 10.3492 17.1151 10.6755L13.7854 12.4313L13.7808 12.4337C13.4742 12.5982 13.0861 12.512 12.878 12.2331C12.7609 12.0761 12.7146 11.8834 12.7475 11.6903C12.7805 11.4973 12.8881 11.3308 13.0506 11.2216L13.0609 11.2147L18.5878 7.21036L17.7625 6.07133L16.178 7.21932C14.3931 5.42932 11.6049 5.04946 9.29774 6.35841L8.95285 6.55411L8.60796 6.35841C8.55859 6.33042 8.50898 6.30327 8.45914 6.27678L10.3016 4.46883C10.8265 4.02628 11.4924 3.78285 12.1795 3.78285H12.2082L15.7605 3.49174C17.0785 3.38371 18.3967 3.16354 19.6782 2.8374L22.5936 2.09549V8.94512H22.5935Z" fill="white"/>
</svg>
