<svg width="24" height="24" viewBox="0 0 24 24" fill="none" xmlns="http://www.w3.org/2000/svg">
<path d="M7.86313 18.2857C6.65643 17.1212 5.62134 16.082 4.75788 15.1683C3.89442 14.2546 3.18213 13.3946 2.62101 12.5884C2.05989 11.7822 1.64928 11.0028 1.38916 10.2504C1.12905 9.49788 0.999332 8.70957 1 7.88543C1 6.20132 1.52794 4.79957 2.5838 3.68017C3.63967 2.56077 4.95531 2.00072 6.53073 2C7.40224 2 8.23185 2.19708 9.01956 2.59123C9.80726 2.98538 10.486 3.54078 11.0559 4.25743C11.6257 3.54078 12.3045 2.98538 13.0922 2.59123C13.8799 2.19708 14.7095 2 15.581 2C16.9385 2 18.0838 2.79332 18.0838 2.79332L16.5 4.31576V4.25743C16.5 4.25743 16.2179 4.14993 15.581 4.14993C14.7263 4.14993 13.9888 4.39645 13.3687 4.8895C12.7486 5.38256 12.1704 6.03183 11.6341 6.83734H10.4777C9.9581 6.03112 9.36715 5.38184 8.7048 4.8895C8.04246 4.39717 7.31777 4.15065 6.53073 4.14993C5.57542 4.14993 4.74983 4.50395 4.05397 5.21199C3.3581 5.92004 3.01051 6.81083 3.01118 7.88436C3.01118 8.47559 3.12849 9.07578 3.36313 9.68492C3.59777 10.2941 4.01676 10.9975 4.62011 11.7951C5.22347 12.5927 6.04469 13.5243 7.0838 14.59C8.12291 15.6556 9.44693 16.9413 11.0559 18.447C11.4916 18.0349 12.0028 17.5601 12.5894 17.0226C13.176 16.4851 16.856 12.8265 17.208 12.4682L17.4342 12.71L17.9249 13.2346L18.4147 13.7581L18.6409 14C18.2722 14.3583 17.8029 14.8019 14.0223 18.5416C13.4525 19.0704 12.9497 19.5406 12.514 19.9519L11.7346 20.7044C11.5503 20.9015 11.324 21 11.0559 21C10.7877 21 10.5615 20.9015 10.3771 20.7044L7.86313 18.2857Z" fill="white"/>
<path d="M10.8798 13.5002C10.6325 13.4818 10.4024 13.3698 10.2389 13.1882L8.09385 11.1131C8.00818 10.9385 7.98023 10.7422 8.01384 10.5515C8.04746 10.3608 8.14099 10.1849 8.28156 10.048C8.42213 9.9112 8.60282 9.82013 8.79875 9.78741C8.99468 9.75469 9.19622 9.7819 9.3756 9.8653L10.8413 11.2791L21.406 1.31744C21.5853 1.23404 21.7869 1.20683 21.9828 1.23955C22.1787 1.27227 22.3594 1.36334 22.5 1.50017C22.6406 1.637 22.7341 1.81293 22.7677 2.00365C22.8013 2.19437 22.7734 2.39059 22.6877 2.56521L11.5207 13.1882C11.3572 13.3698 11.1271 13.4818 10.8798 13.5002Z" fill="white"/>
</svg>
