<svg width="24" height="25" viewBox="0 0 24 25" fill="none" xmlns="http://www.w3.org/2000/svg">
<path d="M14.1065 10.4033C14.1065 9.24021 13.1603 8.29395 11.9972 8.29395C10.834 8.29395 9.88778 9.24021 9.88778 10.4033C9.88778 11.4577 10.2832 12.4512 11.004 13.2146L9.39062 14.828L10.385 15.8224L11.9972 14.2102L13.6094 15.8224L14.6037 14.828L12.9903 13.2146C13.711 12.4512 14.1065 11.4577 14.1065 10.4033ZM11.9972 12.2176C11.5428 11.7206 11.294 11.0811 11.294 10.4034C11.294 10.0157 11.6095 9.70024 11.9972 9.70024C12.3849 9.70024 12.7003 10.0157 12.7003 10.4034C12.7003 11.081 12.4515 11.7206 11.9972 12.2176Z" fill="white"/>
<path d="M17.625 1.2627C15.2178 1.2627 13.0667 2.61757 12 4.68607C10.9333 2.61752 8.78222 1.2627 6.375 1.2627C2.51855 1.2627 0 4.37674 0 8.3262C0 13.3805 4.27664 16.1614 9.79688 20.886C10.2249 21.2524 10.3287 21.3448 12.1406 22.9138C12.7525 22.3859 12.7732 22.3606 14.8688 20.5642C20.9484 15.3527 24 12.7368 24 8.32624C24 4.37627 21.4809 1.2627 17.625 1.2627ZM13.9536 19.4966C13.3707 19.9962 12.7717 20.5097 12.1413 21.0537C11.3415 20.3616 11.0972 20.1472 10.6106 19.7314C5.23509 15.138 1.40625 12.6342 1.40625 8.32624C1.40625 4.9953 3.44948 2.66899 6.375 2.66899C8.62233 2.66899 10.5825 4.18676 11.1419 6.35988L11.2777 6.88774H12.7222L12.858 6.35988C13.4174 4.18676 15.3776 2.66899 17.6249 2.66899C20.5504 2.66899 22.5937 4.99535 22.5937 8.32624C22.5938 12.1045 19.7984 14.4863 13.9536 19.4966Z" fill="white"/>
</svg>
