<svg width="120" height="112" viewBox="0 0 120 112" fill="none" xmlns="http://www.w3.org/2000/svg">
<g filter="url(#filter0_d_135_1712)">
<path d="M112.843 20.6326C112.444 19.6186 111.996 18.6328 111.501 17.6758C108.459 20.9283 105.815 23.8563 103.894 26.1188C104.515 28.2055 104.826 30.4085 104.801 32.6723C104.736 38.6051 102.39 44.082 98.197 48.094C94.8087 51.3359 91.2369 54.5577 87.7824 57.673C84.1914 60.9121 80.478 64.2611 76.9011 67.6929C75.7337 68.8129 74.5494 69.9244 73.2954 71.101C68.7065 75.4074 64.0053 79.8189 60.0046 84.762C57.1286 81.2091 53.8909 77.9314 50.5933 74.7694C54.0401 71.2295 57.0941 68.2833 59.9266 66.2688C60.4652 65.8859 61.148 65.7427 61.7323 65.4725C61.927 65.3827 62.1187 65.2926 62.306 65.2031C63.0553 64.8448 63.7359 64.4931 64.2732 64.178C65.011 63.7455 65.7737 63.2785 66.6099 63.1084C66.6514 63.1001 66.692 63.0886 66.7339 63.0819C66.8077 63.0697 66.8822 63.056 66.957 63.0409C67.1066 63.0106 67.2575 62.9748 67.4093 62.9342C67.5113 62.907 67.6136 62.8766 67.7162 62.8453C69.3659 62.3403 71.0361 61.3449 71.6834 60.9367C71.8627 60.8235 71.9634 60.7554 71.9634 60.7554C72.0379 60.7126 72.1005 60.6672 72.1533 60.6209C72.3943 60.407 72.4192 60.165 72.3834 59.9752C72.3646 59.8751 72.3304 59.7882 72.2988 59.7303C72.0162 59.2144 71.117 59.5174 71.117 59.5174C69.895 59.9659 68.7017 60.4674 67.9486 60.6221C65.0807 61.2112 65.2472 60.618 65.2472 60.618C65.2811 60.5435 65.3437 60.4617 65.43 60.3738C65.7749 60.0212 66.497 59.5667 67.27 59.069C67.463 58.9446 67.6596 58.8174 67.854 58.6882C68.2427 58.4303 68.6237 58.1653 68.9561 57.9C69.1045 57.7817 69.2505 57.6602 69.3982 57.5404C70.166 56.9177 70.9262 56.2841 71.7013 55.6736C72.1965 55.2839 72.9233 54.6545 72.8661 53.9762C72.853 53.8196 72.798 53.6607 72.6887 53.5012C72.222 52.8204 71.0313 53.6128 71.0313 53.6128C69.5363 55.0381 68.267 55.7653 67.3512 56.4836C66.249 57.3473 65.6324 57.6887 65.2859 57.8031C65.1251 57.8562 65.0218 57.861 64.957 57.8453C64.918 57.836 64.8924 57.8194 64.8758 57.8025C64.8463 57.7724 64.8441 57.7405 64.8441 57.7405C64.8332 57.6912 64.8607 57.6139 64.9141 57.518C65.2488 56.9161 66.7083 55.5054 67.5695 54.6203C68.6911 53.468 69.8144 52.3188 70.9505 51.1805C71.1058 51.0245 71.2634 50.8663 71.3708 50.6742C71.3944 50.632 71.413 50.5847 71.429 50.5361C71.4338 50.5214 71.4379 50.5064 71.4421 50.4911C71.452 50.4552 71.4593 50.4182 71.4654 50.3804C71.4683 50.3625 71.4721 50.3453 71.474 50.3271C71.4791 50.281 71.4808 50.2337 71.4801 50.1864C71.4798 50.1529 71.4763 50.1199 71.4731 50.086C71.4715 50.0704 71.4699 50.055 71.468 50.0397C71.451 49.9131 71.4136 49.791 71.3558 49.682C71.2889 49.5561 71.1975 49.448 71.0748 49.3812C70.4367 49.035 69.792 49.4653 69.3292 49.8949C68.2606 50.8865 67.0638 51.7371 66.0144 52.7545C63.2794 55.4064 62.907 55.2155 62.7379 55.1184C62.5417 55.0055 65.3086 51.4529 66.256 50.3638C66.319 50.2913 66.3858 50.2002 66.4641 50.1052C66.9068 49.5663 67.409 49.0037 67.5228 48.2963C67.5992 47.8197 67.5797 47.0289 66.9295 47.0091C66.5597 46.9979 65.9814 47.2846 65.7347 47.5656C64.069 49.4637 62.9809 51.03 61.9867 51.8672C60.648 52.9946 58.6118 55.5445 57.8469 55.2964C57.1459 55.0691 56.7834 54.3502 56.6306 53.7231L56.6303 53.7221C56.5555 53.4146 56.5309 53.1314 56.5427 52.9374C56.5434 52.9275 56.5443 52.9185 56.545 52.9092C56.5497 52.852 56.5568 52.8009 56.568 52.7638C56.6802 52.3917 56.7249 51.7764 56.6731 51.1467C56.6703 51.1105 56.6664 51.0744 56.6629 51.0383C56.6357 50.7659 56.59 50.4943 56.5232 50.2395C56.3931 49.7421 56.1841 49.3128 55.8756 49.0907C55.1295 48.5536 54.969 49.7613 54.8674 50.5646C54.853 50.6793 54.8396 50.7858 54.8258 50.8778C54.7162 51.614 53.8208 53.0297 53.8403 53.5709C53.8503 53.8397 53.8496 54.1057 53.8416 54.3684C53.8413 54.3768 53.841 54.3851 53.8407 54.3934C53.7259 57.9687 52.0931 60.8836 52.0612 60.9392C50.9983 62.8002 44.4634 69.9116 37.6947 76.7106C38.341 77.3211 38.9893 77.9298 39.6273 78.5288C39.6474 78.548 39.6682 78.5671 39.6887 78.5863C40.3107 79.17 40.935 79.7559 41.5586 80.3444C41.5733 80.3582 41.5881 80.3722 41.6025 80.386C42.2303 80.9786 42.8577 81.5738 43.4814 82.1725C48.1115 86.6157 52.549 91.2388 55.624 96.2734L60.0049 103.446L64.3857 96.2734C68.2964 89.8707 74.4094 84.1342 80.3214 78.586C81.5405 77.442 82.8012 76.2593 84.0092 75.0999C87.472 71.7777 91.1257 68.4824 94.6591 65.2955C98.1686 62.1299 101.798 58.857 105.295 55.5103C108.429 52.5119 110.873 48.9567 112.558 44.9441C114.177 41.0888 115.021 36.9975 115.068 32.7839C115.113 28.5891 114.365 24.5001 112.843 20.6326Z" fill="#36A0BF"/>
</g>
<g filter="url(#filter1_d_135_1712)">
<path d="M40.591 65.3212C37.8055 62.7153 34.9766 60.1597 32.218 57.6719C28.7635 54.5562 25.1917 51.3347 21.8034 48.0928C17.6102 44.0805 15.2649 38.6036 15.1994 32.6712C15.1342 26.772 17.3423 21.2793 21.4166 17.205C25.4059 13.2155 30.9589 10.9929 36.6947 10.9929C37.6716 10.9929 38.6542 11.0575 39.6346 11.1885C40.3452 11.2835 41.036 11.4149 41.7472 11.5903C42.0131 11.6559 42.2538 11.7201 42.4833 11.7866C42.7717 11.87 43.0709 11.965 43.371 12.0686C43.5433 12.128 43.7143 12.1894 43.8837 12.2533C44.4291 12.4588 44.9776 12.6947 45.5146 12.9546C49.4623 14.8655 52.8999 18.1346 56.3656 21.6003L59.9952 25.2299L63.6249 21.6003C67.0906 18.1346 70.5284 14.8655 74.4758 12.9546C75.0128 12.6947 75.5617 12.4588 76.107 12.2533C76.2761 12.1894 76.4471 12.128 76.6188 12.0689C76.9199 11.9653 77.2188 11.8704 77.5071 11.7866C77.7369 11.7201 77.9776 11.6559 78.2439 11.5903C78.9548 11.4149 79.6456 11.2835 80.3562 11.1885C84.1329 10.6832 87.931 11.1694 91.3628 12.5151C88.7761 14.9374 86.3302 17.0251 83.9839 18.6937C83.1605 19.2793 82.1165 19.4982 81.2234 19.9109C80.9255 20.0484 80.6327 20.1861 80.3462 20.323C79.2006 20.8708 78.1601 21.4085 77.339 21.8902C76.2109 22.5516 75.0451 23.2653 73.7662 23.5259C73.7029 23.5387 73.6406 23.5559 73.5766 23.5668C73.4638 23.5853 73.35 23.6064 73.2359 23.6294C73.0073 23.6758 72.7765 23.7305 72.5445 23.7925C72.3885 23.8343 72.2318 23.8804 72.0752 23.9283C69.5528 24.7003 66.9991 26.2222 66.0098 26.8468C65.7355 27.0197 65.5818 27.1239 65.5818 27.1239C65.468 27.1894 65.3718 27.2585 65.2916 27.3297C64.923 27.6568 64.8849 28.0266 64.9396 28.3168C64.9684 28.4696 65.0205 28.6026 65.0691 28.6911C65.5012 29.48 66.8757 29.0165 66.8757 29.0165C68.7441 28.3309 70.5684 27.564 71.7201 27.3275C76.1048 26.4267 75.8503 27.3339 75.8503 27.3339C75.7986 27.4477 75.7027 27.5727 75.571 27.7076C75.0439 28.2465 73.9394 28.9414 72.758 29.7025C72.4626 29.8927 72.1625 30.0874 71.8652 30.2846C71.2707 30.6791 70.688 31.0844 70.1797 31.4897C69.9527 31.6706 69.7296 31.8563 69.504 32.0392C68.3299 32.9911 67.1679 33.9597 65.9827 34.8934C65.2257 35.4892 64.1143 36.4517 64.2019 37.4883C64.222 37.7278 64.3061 37.971 64.4732 38.2146C65.187 39.2554 67.0071 38.0442 67.0071 38.0442C69.2926 35.8651 71.2336 34.7527 72.634 33.655C74.3189 32.3342 75.2622 31.8126 75.7915 31.6374C76.0374 31.5562 76.1949 31.5489 76.2944 31.5725C76.3541 31.5869 76.3931 31.6121 76.4187 31.638C76.4634 31.6838 76.4669 31.733 76.4669 31.733C76.4836 31.8084 76.4417 31.9264 76.3602 32.0731C75.8484 32.993 73.6169 35.1501 72.3002 36.5032C70.5856 38.2654 68.8681 40.0222 67.1308 41.7621C66.893 42.0002 66.6523 42.2425 66.4884 42.5363C66.4522 42.6009 66.4241 42.6731 66.3992 42.7476C66.3918 42.7703 66.3854 42.793 66.379 42.8163C66.364 42.871 66.3525 42.9275 66.3432 42.9854C66.3387 43.0129 66.3333 43.0391 66.3301 43.0672C66.3225 43.1379 66.3202 43.2098 66.3208 43.282C66.3215 43.3332 66.3266 43.384 66.3314 43.4351C66.3336 43.4588 66.3362 43.4825 66.3394 43.5061C66.3653 43.6998 66.4222 43.8865 66.511 44.053C66.6133 44.2455 66.753 44.4111 66.9406 44.5127C67.9162 45.042 68.9017 44.3839 69.6094 43.7273C71.2432 42.2115 73.0732 40.9108 74.6775 39.3551C78.8592 35.3006 79.4288 35.5925 79.6871 35.7411C79.9873 35.9137 75.7567 41.3456 74.308 43.0103C74.2115 43.1213 74.1092 43.2603 73.9899 43.4054C73.3132 44.2292 72.5451 45.0897 72.3715 46.1714C72.2549 46.8999 72.2843 48.1091 73.2787 48.1395C73.8442 48.1568 74.7283 47.7182 75.1055 47.2886C77.6522 44.3868 79.316 41.9919 80.836 40.712C82.883 38.9881 85.9961 35.0896 87.1654 35.4687C88.2375 35.8165 88.7915 36.9155 89.0251 37.8741L89.0255 37.8754C89.1399 38.3456 89.1776 38.7785 89.1591 39.0751C89.1581 39.0901 89.1569 39.1039 89.1556 39.1182C89.1482 39.2055 89.1374 39.2838 89.1204 39.3404C88.9488 39.9094 88.8804 40.8501 88.9593 41.8129C88.9638 41.8682 88.9695 41.9232 88.9753 41.9788C89.0168 42.3953 89.0869 42.8109 89.1888 43.2002C89.388 43.9607 89.7073 44.6172 90.1791 44.9567C91.3199 45.7779 91.5648 43.9313 91.7205 42.7031C91.7428 42.5277 91.763 42.3646 91.7841 42.224C91.9516 41.0985 93.3206 38.9338 93.2906 38.1065C93.2756 37.6955 93.2765 37.2889 93.2887 36.8871C93.289 36.8743 93.2896 36.8615 93.2903 36.8487C93.4661 31.3823 95.9623 26.9257 96.0108 26.8404C96.421 26.1224 97.3646 24.8924 98.7116 23.2884C98.6988 23.2443 98.6876 23.1992 98.6745 23.1548C100.596 20.8923 103.24 17.9642 106.282 14.7118C106.297 14.7399 106.31 14.7687 106.325 14.7971C106.962 14.1143 107.616 13.4172 108.288 12.7075C107.528 11.7444 106.711 10.8219 105.834 9.94509C105.201 9.31218 104.539 8.71282 103.856 8.14096C103.857 8.14 103.858 8.13874 103.859 8.13778C103.777 8.06873 103.693 8.00224 103.61 7.93415C103.528 7.86702 103.446 7.79958 103.363 7.73341C103.14 7.55409 102.915 7.37795 102.687 7.20502C102.662 7.18616 102.638 7.16666 102.613 7.1478C102.341 6.9429 102.066 6.74345 101.788 6.54782C101.764 6.53056 101.739 6.51425 101.715 6.49731C101.462 6.32022 101.206 6.1476 100.948 5.97819C100.909 5.95262 100.87 5.92737 100.831 5.90212C100.56 5.72567 100.286 5.55306 100.009 5.38524C100.003 5.3814 99.9966 5.37756 99.9902 5.37373C93.8107 1.63123 86.3637 0.026262 78.9951 1.01207C77.9265 1.15496 76.8467 1.36016 75.7855 1.62196C75.3846 1.72073 75.0132 1.82015 74.6497 1.92532C74.1997 2.05574 73.7381 2.20213 73.2768 2.361C73.008 2.4537 72.7424 2.54928 72.487 2.6455C71.6533 2.95971 70.8174 3.31867 70.0029 3.71313C66.1834 5.562 62.9932 8.06232 59.9949 10.8264C56.9965 8.06264 53.8064 5.562 49.9869 3.71313C49.1724 3.31899 48.3365 2.95971 47.5032 2.64581C47.2478 2.54959 46.9821 2.45402 46.7124 2.361C46.2517 2.20245 45.7902 2.05605 45.3401 1.92563C44.977 1.82047 44.6055 1.72138 44.2047 1.62229C43.1434 1.36049 42.0636 1.15527 40.995 1.01238C31.1056 -0.31034 21.0723 3.02876 14.156 9.94509C11.0985 13.0026 8.74365 16.5977 7.15625 20.6311C5.63439 24.4986 4.88607 28.5876 4.93242 32.784C4.97877 36.9977 5.82327 41.0892 7.44231 44.9442C9.12752 48.9568 11.571 52.512 14.7049 55.5104C18.2022 58.8568 21.8315 62.1301 25.341 65.2956C28.0321 67.7227 30.7898 70.2141 33.4829 72.731C36.0161 70.1668 38.4774 67.5993 40.591 65.3212Z" fill="#36A0BF"/>
</g>
<defs>
<filter id="filter0_d_135_1712" x="33.6947" y="17.6758" width="85.3749" height="93.7703" filterUnits="userSpaceOnUse" color-interpolation-filters="sRGB">
<feFlood flood-opacity="0" result="BackgroundImageFix"/>
<feColorMatrix in="SourceAlpha" type="matrix" values="0 0 0 0 0 0 0 0 0 0 0 0 0 0 0 0 0 0 127 0" result="hardAlpha"/>
<feOffset dy="4"/>
<feGaussianBlur stdDeviation="2"/>
<feComposite in2="hardAlpha" operator="out"/>
<feColorMatrix type="matrix" values="0 0 0 0 0 0 0 0 0 0 0 0 0 0 0 0 0 0 0.25 0"/>
<feBlend mode="normal" in2="BackgroundImageFix" result="effect1_dropShadow_135_1712"/>
<feBlend mode="normal" in="SourceGraphic" in2="effect1_dropShadow_135_1712" result="shape"/>
</filter>
<filter id="filter1_d_135_1712" x="0.930389" y="0.727539" width="111.357" height="80.0034" filterUnits="userSpaceOnUse" color-interpolation-filters="sRGB">
<feFlood flood-opacity="0" result="BackgroundImageFix"/>
<feColorMatrix in="SourceAlpha" type="matrix" values="0 0 0 0 0 0 0 0 0 0 0 0 0 0 0 0 0 0 127 0" result="hardAlpha"/>
<feOffset dy="4"/>
<feGaussianBlur stdDeviation="2"/>
<feComposite in2="hardAlpha" operator="out"/>
<feColorMatrix type="matrix" values="0 0 0 0 0 0 0 0 0 0 0 0 0 0 0 0 0 0 0.25 0"/>
<feBlend mode="normal" in2="BackgroundImageFix" result="effect1_dropShadow_135_1712"/>
<feBlend mode="normal" in="SourceGraphic" in2="effect1_dropShadow_135_1712" result="shape"/>
</filter>
</defs>
</svg>
