<svg width="40" height="40" viewBox="0 0 40 40" fill="none" xmlns="http://www.w3.org/2000/svg">
<path d="M11.9284 8.79004H6.19273L1.17188 18.8317H38.8281L33.8073 8.79004H28.0716" stroke="#36A0BF" stroke-width="2" stroke-miterlimit="10" stroke-linecap="round" stroke-linejoin="round"/>
<path d="M11.2135 13.8109H28.7865" stroke="#36A0BF" stroke-width="2" stroke-miterlimit="10" stroke-linecap="round" stroke-linejoin="round"/>
<path d="M38.8281 18.8317H1.17188V38.915H38.8281V18.8317Z" stroke="#36A0BF" stroke-width="2" stroke-miterlimit="10" stroke-linecap="round" stroke-linejoin="round"/>
<path d="M32.552 25.1078H7.44789V32.639H32.552V25.1078Z" stroke="#36A0BF" stroke-width="2" stroke-miterlimit="10" stroke-linecap="round" stroke-linejoin="round"/>
<path d="M17.5605 13.8109C14.9603 12.3015 11.2135 9.55824 11.2135 6.27965C11.2135 3.50816 13.4635 1.25879 16.2344 1.25879C17.7331 1.25879 19.0793 1.91652 20 2.95957C20.9207 1.91652 22.2669 1.25879 23.7656 1.25879C26.5365 1.25879 28.7865 3.50816 28.7865 6.27965C28.7865 9.55824 25.0397 12.3015 22.4395 13.8109H17.5605Z" stroke="#36A0BF" stroke-width="2" stroke-miterlimit="10" stroke-linecap="round" stroke-linejoin="round"/>
</svg>
