<svg width="20" height="18" viewBox="0 0 20 18" fill="none" xmlns="http://www.w3.org/2000/svg">
<path d="M6.39407 5.71729L6.71642 5.90021L7.03878 5.71729C9.07619 4.56138 11.5404 4.90299 13.1086 6.49455L14.535 5.46114L14.88 5.93733L15.225 6.41352C15.225 6.41352 10.3368 9.95515 10.3331 9.95782C10.0391 10.1708 9.93942 10.608 10.1633 10.9082C10.3536 11.1633 10.7231 11.2477 11.0065 11.0956L11.0103 11.0936L13.9575 9.53949C14.4572 9.27198 15.0212 9.22991 15.4276 9.22858C15.4547 9.2285 15.4811 9.22858 15.5067 9.22882C16.8119 9.23987 18.054 8.74154 19.0066 7.82726L19.0205 7.81429L20.0018 6.93173V0.356445L15.9119 1.39726C14.8428 1.66932 13.7432 1.85298 12.6436 1.94311L9.54752 2.19683C8.65301 2.20275 7.7875 2.52581 7.10766 3.10804L5 5.17462C5.47999 5.28375 5.949 5.46475 6.39407 5.71729Z" fill="#003C6B"/>
<path d="M13.2503 11.2416L11.5588 12.1336C11.2877 12.2786 10.9921 12.3481 10.6989 12.3481C10.1322 12.3481 9.57423 12.0884 9.21887 11.612C8.91513 11.2048 8.79498 10.7048 8.8804 10.2041C8.96523 9.70706 9.24098 9.27792 9.6573 8.99445L12.1395 7.19605C10.9383 6.09142 9.12776 5.8838 7.61738 6.7408L6.71468 7.25297L5.81197 6.7408C5.21183 6.40029 4.555 6.22886 3.89523 6.22886C3.34522 6.22886 2.79325 6.34799 2.27026 6.5876C1.11995 7.11459 0.319251 8.12871 0.0734931 9.36989C-0.194257 10.722 0.28095 12.129 1.31365 13.0419L6.71472 17.8162L12.1157 13.0419C12.6425 12.5763 13.0364 11.9416 13.2503 11.2416Z" fill="#003C6B"/>
</svg>
