<svg width="24" height="22" viewBox="0 0 24 22" fill="none" xmlns="http://www.w3.org/2000/svg">
<path d="M16.4103 0.583008C14.8269 0.583008 13.2814 1.08152 12 1.99662C10.7185 1.08152 9.17311 0.583008 7.58963 0.583008C3.40467 0.583008 0 3.98768 0 8.17268C0 9.81401 0.567281 11.4436 1.64053 12.8853C3.3878 15.2326 11.6662 21.3434 12 21.5893C12.3338 21.3434 20.6122 15.2326 22.3595 12.8853C23.4327 11.4436 24 9.81396 24 8.17268C24 3.98768 20.5953 0.583008 16.4103 0.583008ZM7.75481 16.5005V16.5611C6.46322 15.5269 5.14416 14.4281 4.14816 13.4992C4.39805 12.1874 5.55286 11.1924 6.93633 11.1924C8.12297 11.1924 9.17105 11.9336 9.58608 13.0104C8.48039 13.7775 7.75481 15.0558 7.75481 16.5005ZM4.83563 7.68537C4.83563 6.52704 5.778 5.58466 6.93637 5.58466C8.09475 5.58466 9.03713 6.52704 9.03713 7.68537C9.03713 8.84374 8.09475 9.78612 6.93637 9.78612C5.778 9.78612 4.83563 8.84374 4.83563 7.68537ZM14.8389 17.6719C13.6205 18.6225 12.5583 19.4226 12 19.8398C11.4417 19.4227 10.3795 18.6225 9.16106 17.672V16.5005C9.16106 14.9351 10.4346 13.6616 12 13.6616C13.5654 13.6616 14.8389 14.9351 14.8389 16.5005V17.6719ZM9.89925 10.1546C9.89925 8.99623 10.8416 8.05385 12 8.05385C13.1584 8.05385 14.1007 8.99623 14.1007 10.1546C14.1007 11.3129 13.1583 12.2553 12 12.2553C10.8417 12.2553 9.89925 11.3129 9.89925 10.1546ZM16.2451 16.5611V16.5005C16.2451 15.0558 15.5196 13.7776 14.4138 13.0104C14.8289 11.9336 15.877 11.1924 17.0636 11.1924C18.4471 11.1924 19.6019 12.1873 19.8518 13.4991C18.8558 14.428 17.5368 15.5268 16.2451 16.5611ZM14.9629 7.68537C14.9629 6.52704 15.9052 5.58466 17.0636 5.58466C18.222 5.58466 19.1643 6.52704 19.1643 7.68537C19.1643 8.84374 18.222 9.78612 17.0636 9.78612C15.9053 9.78612 14.9629 8.84374 14.9629 7.68537ZM21.2315 12.0456C21.1571 12.1455 21.0688 12.2536 20.9692 12.368C20.6202 11.5517 20.0227 10.8662 19.272 10.4071C20.0637 9.76357 20.5706 8.78271 20.5706 7.68537C20.5706 5.75163 18.9974 4.17841 17.0636 4.17841C15.349 4.17841 13.9188 5.41563 13.6165 7.04393C13.1324 6.79132 12.5828 6.6476 12 6.6476C11.4172 6.6476 10.8676 6.79132 10.3835 7.04393C10.0811 5.41559 8.65097 4.17841 6.93637 4.17841C5.00264 4.17841 3.42938 5.75163 3.42938 7.68537C3.42938 8.78271 3.93633 9.76352 4.72795 10.4071C3.97739 10.8662 3.37978 11.5517 3.0308 12.368C2.93128 12.2536 2.84292 12.1455 2.76853 12.0456C1.8773 10.8484 1.40625 9.50913 1.40625 8.17268C1.40625 4.76313 4.18008 1.98926 7.58963 1.98926C9.03473 1.98926 10.441 2.49888 11.5493 3.42434L12 3.80055L12.4507 3.42434C13.559 2.49888 14.9653 1.98926 16.4104 1.98926C19.8199 1.98926 22.5938 4.76309 22.5938 8.17268C22.5938 9.50913 22.1227 10.8484 21.2315 12.0456Z" fill="white"/>
</svg>
