<svg width="14" height="14" viewBox="0 0 14 14" fill="none" xmlns="http://www.w3.org/2000/svg">
<path d="M7.00216 0.688477C5.26401 0.688477 5.04588 0.696077 4.3632 0.727144C3.68186 0.758344 3.21679 0.866212 2.80985 1.02448C2.38891 1.18795 2.03184 1.40662 1.67611 1.76249C1.3201 2.11822 1.10143 2.4753 0.937433 2.8961C0.778764 3.30317 0.670763 3.76838 0.640096 4.44945C0.609563 5.13212 0.601562 5.35039 0.601562 7.08854C0.601562 8.82669 0.609296 9.04416 0.64023 9.72684C0.671563 10.4082 0.779431 10.8732 0.937566 11.2802C1.10117 11.7011 1.31984 12.0582 1.67571 12.4139C2.03131 12.7699 2.38838 12.9891 2.80905 13.1526C3.21626 13.3109 3.68146 13.4187 4.36267 13.4499C5.04534 13.481 5.26334 13.4886 7.00136 13.4886C8.73965 13.4886 8.95712 13.481 9.63979 13.4499C10.3211 13.4187 10.7867 13.3109 11.1939 13.1526C11.6147 12.9891 11.9713 12.7699 12.3269 12.4139C12.6829 12.0582 12.9016 11.7011 13.0656 11.2803C13.2229 10.8732 13.3309 10.408 13.3629 9.72697C13.3936 9.0443 13.4016 8.82669 13.4016 7.08854C13.4016 5.35039 13.3936 5.13226 13.3629 4.44958C13.3309 3.76824 13.2229 3.30317 13.0656 2.89623C12.9016 2.4753 12.6829 2.11822 12.3269 1.76249C11.9709 1.40648 11.6149 1.18782 11.1935 1.02448C10.7855 0.866212 10.3202 0.758344 9.63886 0.727144C8.95618 0.696077 8.73885 0.688477 7.00016 0.688477H7.00216Z" fill="#003C6B"/>
<path fill-rule="evenodd" clip-rule="evenodd" d="M6.43039 1.83851C6.54188 1.83834 6.6618 1.83839 6.79122 1.83845L7.00453 1.83851C8.71335 1.83851 8.91589 1.84465 9.59069 1.87531C10.2147 1.90385 10.5534 2.00812 10.779 2.09572C11.0776 2.21172 11.2906 2.35039 11.5144 2.57439C11.7384 2.79839 11.8771 3.01173 11.9934 3.3104C12.081 3.53573 12.1854 3.8744 12.2138 4.49841C12.2445 5.17308 12.2511 5.37575 12.2511 7.08377C12.2511 8.79179 12.2445 8.99446 12.2138 9.66913C12.1853 10.2931 12.081 10.6318 11.9934 10.8571C11.8774 11.1558 11.7384 11.3685 11.5144 11.5923C11.2904 11.8164 11.0778 11.955 10.779 12.071C10.5536 12.159 10.2147 12.263 9.59069 12.2916C8.91602 12.3222 8.71335 12.3289 7.00453 12.3289C5.29558 12.3289 5.09305 12.3222 4.41837 12.2916C3.79437 12.2628 3.4557 12.1585 3.22996 12.0709C2.93129 11.9549 2.71796 11.8162 2.49395 11.5922C2.26995 11.3682 2.13128 11.1554 2.01502 10.8566C1.92741 10.6313 1.82301 10.2926 1.79461 9.6686C1.76395 8.99392 1.75781 8.79125 1.75781 7.08217C1.75781 5.37308 1.76395 5.17148 1.79461 4.49681C1.82315 3.8728 1.92741 3.53413 2.01502 3.30853C2.13102 3.00986 2.26995 2.79652 2.49395 2.57252C2.71796 2.34852 2.93129 2.20985 3.22996 2.09358C3.45556 2.00558 3.79437 1.90158 4.41837 1.87291C5.00878 1.84625 5.23758 1.83825 6.43039 1.83691V1.83851ZM10.4243 2.89968C10.0003 2.89968 9.65625 3.24328 9.65625 3.66742C9.65625 4.09143 10.0003 4.43543 10.4243 4.43543C10.8483 4.43543 11.1923 4.09143 11.1923 3.66742C11.1923 3.24342 10.8483 2.89941 10.4243 2.89941V2.89968ZM3.71875 7.08455C3.71875 5.26951 5.19029 3.79792 7.00532 3.79785C8.8204 3.79785 10.2916 5.26947 10.2916 7.08455C10.2916 8.89964 8.82054 10.3706 7.00545 10.3706C5.19037 10.3706 3.71875 8.89964 3.71875 7.08455Z" fill="white"/>
<path d="M7.00054 4.9541C8.17869 4.9541 9.1339 5.90918 9.1339 7.08746C9.1339 8.2656 8.17869 9.22081 7.00054 9.22081C5.82226 9.22081 4.86719 8.2656 4.86719 7.08746C4.86719 5.90918 5.82226 4.9541 7.00054 4.9541Z" fill="white"/>
</svg>
