<svg width="48" height="49" viewBox="0 0 48 49" fill="none" xmlns="http://www.w3.org/2000/svg">
<mask id="mask0_135_1291" style="mask-type:luminance" maskUnits="userSpaceOnUse" x="0" y="0" width="48" height="49">
<path d="M3.05176e-05 0.586979H48V48.587H3.05176e-05V0.586979Z" fill="white"/>
</mask>
<g mask="url(#mask0_135_1291)">
<path d="M7.03128 13.2432H1.40628V44.3682H14.3038C16.8506 44.3682 19.293 45.3799 21.0938 47.1807H26.9063C28.707 45.3799 31.1495 44.3682 33.6962 44.3682H46.5938V16.0557H40.9688" stroke="#36A0BF" stroke-width="2" stroke-miterlimit="10"/>
<path d="M24 13.2432H24.8814C27.4407 11.415 30.4782 10.4307 33.6843 10.4307H40.9688V38.7432H33.6843C30.4782 38.7432 27.4407 39.7275 24.8814 41.5557H23.1187C20.5594 39.7275 17.5218 38.7432 14.3157 38.7432H7.03128V7.61823H12.6563" stroke="#36A0BF" stroke-width="2" stroke-miterlimit="10"/>
<path d="M12.6563 1.99323V30.3057C18.8696 30.3057 24 35.3424 24 41.5557V13.2432C24 7.02995 18.8696 1.99323 12.6563 1.99323Z" stroke="#36A0BF" stroke-width="2" stroke-miterlimit="10"/>
</g>
</svg>
