<svg width="40" height="40" viewBox="0 0 40 40" fill="none" xmlns="http://www.w3.org/2000/svg">
<path d="M29.3563 24.978C31.0084 27.3029 30.7924 30.5479 28.7081 32.6322L22.7976 38.5427L22.1027 37.8479C19.9958 35.7409 19.1208 32.8685 19.4777 30.1258" stroke="#36A0BF" stroke-width="2" stroke-miterlimit="10" stroke-linecap="round" stroke-linejoin="round"/>
<path d="M14.8599 10.4482C12.5276 8.699 9.20375 8.8851 7.08234 11.0064L1.17188 16.917L1.86672 17.6118C3.97648 19.7216 6.85383 20.5961 9.59984 20.2353" stroke="#36A0BF" stroke-width="2" stroke-miterlimit="10" stroke-linecap="round" stroke-linejoin="round"/>
<path d="M37.1859 12.7177C34.7117 19.8212 29.5662 25.8608 22.6027 29.3795L21.4918 29.9408L15.1642 30.9094L8.80508 24.5503L9.77368 18.2227L9.95868 17.8566C13.6231 10.6049 20.0095 5.3428 27.4631 2.99483C31.0451 1.86647 34.8734 1.41045 38.7649 1.73131L38.8007 1.73428C38.964 5.53584 38.3927 9.25326 37.1859 12.7177Z" stroke="#36A0BF" stroke-width="2" stroke-miterlimit="10" stroke-linecap="round" stroke-linejoin="round"/>
<path d="M27.575 3.10681L37.0741 12.6058" stroke="#36A0BF" stroke-width="2" stroke-miterlimit="10" stroke-linecap="round" stroke-linejoin="round"/>
<path d="M24.0952 19.5851C26.028 19.5851 27.5948 18.0183 27.5948 16.0856C27.5948 14.1529 26.028 12.5861 24.0952 12.5861C22.1625 12.5861 20.5957 14.1529 20.5957 16.0856C20.5957 18.0183 22.1625 19.5851 24.0952 19.5851Z" stroke="#36A0BF" stroke-width="2" stroke-miterlimit="10" stroke-linecap="round" stroke-linejoin="round"/>
<path d="M21.324 29.773L9.94156 18.3905" stroke="#36A0BF" stroke-width="2" stroke-miterlimit="10" stroke-linecap="round" stroke-linejoin="round"/>
<path d="M8.78992 31.2483L5.01913 35.0192" stroke="#36A0BF" stroke-width="2" stroke-miterlimit="10" stroke-linecap="round" stroke-linejoin="round"/>
<path d="M5.43327 27.8917L1.66241 31.6625" stroke="#36A0BF" stroke-width="2" stroke-miterlimit="10" stroke-linecap="round" stroke-linejoin="round"/>
<path d="M12.1466 34.6051L8.37579 38.3759" stroke="#36A0BF" stroke-width="2" stroke-miterlimit="10" stroke-linecap="round" stroke-linejoin="round"/>
</svg>
