<svg width="49" height="49" viewBox="0 0 49 49" fill="none" xmlns="http://www.w3.org/2000/svg">
<g clip-path="url(#clip0_135_1268)">
<path d="M33.4874 4.98694C30.1311 4.98694 27.0563 6.18872 24.6667 8.18381C22.2772 6.18872 19.2023 4.98694 15.8459 4.98694C8.23925 4.98694 2.07294 11.1533 2.07294 18.76C2.07294 22.0068 3.27687 24.9292 5.07575 27.3457C8.48534 31.9259 24.6667 43.8466 24.6667 43.8466C24.6667 43.8466 40.848 31.9259 44.2576 27.3456C46.0565 24.9291 47.2604 22.0067 47.2604 18.7599C47.2604 11.1533 41.0941 4.98694 33.4874 4.98694Z" stroke="#36A0BF" stroke-width="2" stroke-miterlimit="10"/>
<path d="M14.5395 23.3932C17.6365 23.3932 20.1472 20.8826 20.1472 17.7855C20.1472 14.6884 17.6365 12.1777 14.5395 12.1777C11.4424 12.1777 8.9317 14.6884 8.9317 17.7855C8.9317 20.8826 11.4424 23.3932 14.5395 23.3932Z" stroke="#36A0BF" stroke-width="2" stroke-miterlimit="10"/>
<path d="M21.4866 29.0843C20.8394 25.8389 17.975 23.3932 14.5394 23.3932C10.627 23.3932 7.45532 26.5649 7.45532 30.4774" stroke="#36A0BF" stroke-width="2" stroke-miterlimit="10"/>
<path d="M34.7939 23.3932C37.891 23.3932 40.4017 20.8826 40.4017 17.7855C40.4017 14.6884 37.891 12.1777 34.7939 12.1777C31.6969 12.1777 29.1862 14.6884 29.1862 17.7855C29.1862 20.8826 31.6969 23.3932 34.7939 23.3932Z" stroke="#36A0BF" stroke-width="2" stroke-miterlimit="10"/>
<path d="M27.8468 29.0842C28.4939 25.8389 31.3584 23.3931 34.7939 23.3931C38.7064 23.3931 41.8781 26.5648 41.8781 30.4773" stroke="#36A0BF" stroke-width="2" stroke-miterlimit="10"/>
<path d="M24.6667 28.3315C27.7638 28.3315 30.2744 25.8209 30.2744 22.7238C30.2744 19.6267 27.7638 17.116 24.6667 17.116C21.5696 17.116 19.0589 19.6267 19.0589 22.7238C19.0589 25.8209 21.5696 28.3315 24.6667 28.3315Z" stroke="#36A0BF" stroke-width="2" stroke-miterlimit="10"/>
<path d="M31.7508 38.4942V35.4155C31.7508 31.5031 28.5791 28.3314 24.6667 28.3314C20.7542 28.3314 17.5826 31.5031 17.5826 35.4155V38.4942" stroke="#36A0BF" stroke-width="2" stroke-miterlimit="10"/>
</g>
<defs>
<clipPath id="clip0_135_1268">
<rect width="48" height="48" fill="white" transform="translate(0.666687 0.586975)"/>
</clipPath>
</defs>
</svg>
