<svg width="20" height="17" viewBox="0 0 20 17" fill="none" xmlns="http://www.w3.org/2000/svg">
<path d="M19.3134 13.0119C19.4474 13.1745 19.5122 13.3842 19.4937 13.595C19.4752 13.8059 19.3748 14.0008 19.2146 14.1369C17.4989 15.5759 15.9669 16.0869 14.5695 16.0869C12.7332 16.0869 11.1281 15.2049 9.63476 14.3869C7.12935 13.0109 4.96591 11.8229 1.82007 14.4609C1.74031 14.529 1.64802 14.5804 1.54852 14.6122C1.44902 14.644 1.34428 14.6556 1.24034 14.6462C1.1364 14.6369 1.03532 14.6068 0.942917 14.5578C0.850518 14.5087 0.76863 14.4416 0.701976 14.3604C0.635321 14.2792 0.585218 14.1854 0.554555 14.0844C0.523892 13.9835 0.513276 13.8775 0.523318 13.7724C0.533361 13.6673 0.563864 13.5652 0.613069 13.4721C0.662273 13.379 0.729205 13.2967 0.810007 13.2299C4.78011 9.90184 7.7599 11.5379 10.3898 12.9819C12.8952 14.3569 15.0587 15.5449 18.2045 12.9079C18.3655 12.7737 18.5724 12.7093 18.7801 12.7288C18.9878 12.7483 19.1795 12.85 19.3134 13.0119ZM18.1996 7.31181C15.0537 9.94984 12.8903 8.76183 10.3849 7.38581C7.75496 5.94279 4.77516 4.30678 0.805066 7.63481C0.645588 7.77092 0.545738 7.96528 0.527276 8.17555C0.508813 8.38582 0.573234 8.59495 0.706501 8.75737C0.839768 8.91979 1.03108 9.02233 1.23874 9.04264C1.4464 9.06296 1.65358 8.9994 1.81513 8.86583C4.96097 6.2278 7.12441 7.41581 9.62981 8.79183C11.1232 9.61084 12.7282 10.4918 14.5645 10.4918C15.962 10.4918 17.4939 9.98084 19.2096 8.54183C19.2904 8.47502 19.3574 8.39268 19.4066 8.29958C19.4558 8.20647 19.4863 8.10443 19.4963 7.99934C19.5064 7.89424 19.4958 7.78818 19.4651 7.68726C19.4344 7.58634 19.3843 7.49255 19.3177 7.41132C19.251 7.33008 19.1691 7.263 19.0767 7.21394C18.9843 7.16488 18.8832 7.13481 18.7793 7.12547C18.6754 7.11613 18.5706 7.12769 18.4711 7.1595C18.3716 7.19131 18.2793 7.24274 18.1996 7.31081V7.31181ZM1.81513 3.26676C4.96097 0.629732 7.12441 1.81775 9.62981 3.19276C11.1232 4.01277 12.7282 4.89278 14.5645 4.89278C15.962 4.89278 17.4939 4.38078 19.2096 2.94276C19.2904 2.87595 19.3574 2.79362 19.4066 2.70051C19.4558 2.6074 19.4863 2.50536 19.4963 2.40027C19.5064 2.29518 19.4958 2.18911 19.4651 2.08819C19.4344 1.98727 19.3843 1.89349 19.3177 1.81225C19.251 1.73102 19.1691 1.66394 19.0767 1.61488C18.9843 1.56582 18.8832 1.53575 18.7793 1.5264C18.6754 1.51706 18.5706 1.52863 18.4711 1.56044C18.3716 1.59225 18.2793 1.64367 18.1996 1.71174C15.0537 4.34978 12.8903 3.16176 10.3849 1.78575C7.75496 0.344728 4.77516 -1.29129 0.805066 2.03675C0.721446 2.10259 0.651759 2.18477 0.600145 2.27841C0.548532 2.37204 0.516045 2.47521 0.504614 2.5818C0.493184 2.68838 0.503043 2.79621 0.533606 2.89886C0.56417 3.00151 0.614814 3.09691 0.682529 3.17937C0.750245 3.26183 0.83365 3.32968 0.92779 3.37888C1.02193 3.42808 1.12489 3.45764 1.23054 3.46579C1.33619 3.47394 1.44238 3.46053 1.54281 3.42634C1.64323 3.39215 1.73584 3.33788 1.81513 3.26676Z" fill="white"/>
</svg>
