<svg width="13" height="15" viewBox="0 0 13 15" fill="none" xmlns="http://www.w3.org/2000/svg">
<mask id="path-1-inside-1_277_185" fill="white">
<path d="M11.6127 1.48203L12.3965 1.78285L7.93289 6.35455L7.15412 6.06634L11.6127 1.48203Z"/>
</mask>
<path d="M11.6127 1.48203L12.3965 1.78285L7.93289 6.35455L7.15412 6.06634L11.6127 1.48203Z" fill="white"/>
<path d="M11.6127 1.48203L11.9923 0.570909L11.3462 0.322933L10.8698 0.812793L11.6127 1.48203ZM12.3965 1.78285L13.1381 2.45347L14.1627 1.40397L12.776 0.871724L12.3965 1.78285ZM7.93289 6.35455L7.56503 7.27008L8.20437 7.50669L8.67449 7.02518L7.93289 6.35455ZM7.15412 6.06634L6.41117 5.3971L5.37708 6.46035L6.78626 6.98187L7.15412 6.06634ZM11.2331 2.39316L12.0169 2.69397L12.776 0.871724L11.9923 0.570909L11.2331 2.39316ZM11.6549 1.11222L7.19129 5.68392L8.67449 7.02518L13.1381 2.45347L11.6549 1.11222ZM8.30075 5.43902L7.52198 5.1508L6.78626 6.98187L7.56503 7.27008L8.30075 5.43902ZM7.89707 6.73558L12.3557 2.15127L10.8698 0.812793L6.41117 5.3971L7.89707 6.73558Z" fill="#003C6B" mask="url(#path-1-inside-1_277_185)"/>
<mask id="path-3-inside-2_277_185" fill="white">
<path d="M5.68966 7.60093L6.4902 7.88441L1.66881 12.8254L0.872909 12.5549L5.68966 7.60093Z"/>
</mask>
<path d="M5.68966 7.60093L6.4902 7.88441L1.66881 12.8254L0.872909 12.5549L5.68966 7.60093Z" fill="white"/>
<path d="M5.68966 7.60093L6.04369 6.68039L5.40943 6.45579L4.94661 6.93179L5.68966 7.60093ZM6.4902 7.88441L7.232 8.55483L8.2862 7.47449L6.84424 6.96387L6.4902 7.88441ZM1.66881 12.8254L1.32727 13.7503L1.95433 13.9634L2.41061 13.4958L1.66881 12.8254ZM0.872909 12.5549L0.129862 11.8857L-0.935292 12.9812L0.531367 13.4797L0.872909 12.5549ZM5.33563 8.52147L6.13617 8.80495L6.84424 6.96387L6.04369 6.68039L5.33563 8.52147ZM5.74841 7.21399L0.927014 12.155L2.41061 13.4958L7.232 8.55483L5.74841 7.21399ZM2.01035 11.9005L1.21445 11.63L0.531367 13.4797L1.32727 13.7503L2.01035 11.9005ZM1.61596 13.224L6.43271 8.27007L4.94661 6.93179L0.129862 11.8857L1.61596 13.224Z" fill="#003C6B" mask="url(#path-3-inside-2_277_185)"/>
<path d="M9.49426 11.9452L1.98155 2.23949L4.29124 2.25063L11.7988 11.9452L9.49426 11.9452Z" stroke="#003C6B"/>
</svg>
