<svg width="14" height="14" viewBox="0 0 14 14" fill="none" xmlns="http://www.w3.org/2000/svg">
<path d="M1 6.41373C1 3.82069 1.18848 2.52374 1.77717 1.71841C2.36586 0.913086 3.31393 0.913086 5.20942 0.913086H8.79058C10.6861 0.913086 11.6335 0.913086 12.2228 1.71841C12.8121 2.52374 13 3.82069 13 6.41373V7.41244C13 10.0055 12.8115 11.3024 12.2228 12.1078C11.6341 12.9131 10.6861 12.9131 8.79058 12.9131H5.20942C3.31393 12.9131 2.36586 12.9131 1.77717 12.1078C1.18848 11.3024 1 10.0055 1 7.41244V6.41373Z" stroke="#003C6B" stroke-linecap="round" stroke-linejoin="round"/>
<path d="M9.73085 6.47672L6.07256 4.19072C5.9947 4.14206 5.90523 4.11513 5.81345 4.11272C5.72166 4.11032 5.63091 4.13254 5.55061 4.17706C5.47031 4.22158 5.40339 4.28679 5.35681 4.36592C5.31023 4.44504 5.28567 4.53519 5.28571 4.62701V9.19987C5.28583 9.29161 5.31049 9.38165 5.35713 9.46065C5.40378 9.53966 5.47071 9.60474 5.55098 9.64916C5.63125 9.69358 5.72195 9.71572 5.81366 9.71328C5.90537 9.71085 5.99476 9.68392 6.07256 9.63529L9.73085 7.34929C9.80489 7.30308 9.86596 7.23879 9.90829 7.16246C9.95063 7.08613 9.97284 7.00029 9.97284 6.91301C9.97284 6.82573 9.95063 6.73988 9.90829 6.66356C9.86596 6.58723 9.80489 6.52293 9.73085 6.47672Z" stroke="#003C6B" stroke-linejoin="round"/>
</svg>
